<?xml version="1.0" encoding="utf-8" standalone="no"?>
<!DOCTYPE svg PUBLIC "-//W3C//DTD SVG 1.1//EN"
  "http://www.w3.org/Graphics/SVG/1.1/DTD/svg11.dtd">
<svg xmlns:xlink="http://www.w3.org/1999/xlink" width="543.6pt" height="396pt" viewBox="0 0 543.6 396" xmlns="http://www.w3.org/2000/svg" version="1.1">
 <metadata>
  <rdf:RDF xmlns:dc="http://purl.org/dc/elements/1.1/" xmlns:cc="http://creativecommons.org/ns#" xmlns:rdf="http://www.w3.org/1999/02/22-rdf-syntax-ns#">
   <cc:Work>
    <dc:type rdf:resource="http://purl.org/dc/dcmitype/StillImage"/>
    <dc:date>2022-12-03T00:10:19.401866</dc:date>
    <dc:format>image/svg+xml</dc:format>
    <dc:creator>
     <cc:Agent>
      <dc:title>Matplotlib v3.6.0, https://matplotlib.org/</dc:title>
     </cc:Agent>
    </dc:creator>
   </cc:Work>
  </rdf:RDF>
 </metadata>
 <defs>
  <style type="text/css">*{stroke-linejoin: round; stroke-linecap: butt}</style>
 </defs>
 <g id="figure_1">
  <g id="patch_1">
   <path d="M 0 396 
L 543.6 396 
L 543.6 0 
L 0 0 
z
" style="fill: #ffffff"/>
  </g>
  <g id="axes_1">
   <g id="patch_2">
    <path d="M 53.640391 158.744466 
L 530.859375 158.744466 
L 530.859375 31.070703 
L 53.640391 31.070703 
z
" style="fill: #ffffff"/>
   </g>
   <g id="matplotlib.axis_1">
    <g id="xtick_1">
     <g id="line2d_1">
      <defs>
       <path id="m109a38a62a" d="M 0 0 
L 0 3.5 
" style="stroke: #000000; stroke-width: 0.8"/>
      </defs>
      <g>
       <use xlink:href="#m109a38a62a" x="75.332163" y="158.744466" style="stroke: #000000; stroke-width: 0.8"/>
      </g>
     </g>
     <g id="text_1">
      <!-- 0 -->
      <g transform="translate(72.832163 172.619466) scale(0.1 -0.1)">
       <defs>
        <path id="SimHei-30" d="M 225 2537 
Q 250 3200 412 3587 
Q 575 3975 875 4225 
Q 1175 4475 1612 4475 
Q 2050 4475 2375 4112 
Q 2700 3750 2800 3200 
Q 2900 2650 2862 1937 
Q 2825 1225 2612 775 
Q 2400 325 1975 150 
Q 1550 -25 1125 187 
Q 700 400 525 750 
Q 350 1100 275 1487 
Q 200 1875 225 2537 
z
M 750 2687 
Q 675 2000 800 1462 
Q 925 925 1212 700 
Q 1500 475 1800 612 
Q 2100 750 2237 1162 
Q 2375 1575 2375 2062 
Q 2375 2550 2337 2950 
Q 2300 3350 2112 3675 
Q 1925 4000 1612 4012 
Q 1300 4025 1062 3700 
Q 825 3375 750 2687 
z
" transform="scale(0.015625)"/>
       </defs>
       <use xlink:href="#SimHei-30"/>
      </g>
     </g>
    </g>
    <g id="xtick_2">
     <g id="line2d_2">
      <g>
       <use xlink:href="#m109a38a62a" x="180.123332" y="158.744466" style="stroke: #000000; stroke-width: 0.8"/>
      </g>
     </g>
     <g id="text_2">
      <!-- 50 -->
      <g transform="translate(175.123332 172.619466) scale(0.1 -0.1)">
       <defs>
        <path id="SimHei-35" d="M 550 1325 
Q 725 650 1150 575 
Q 1575 500 1837 662 
Q 2100 825 2212 1087 
Q 2325 1350 2312 1675 
Q 2300 2000 2137 2225 
Q 1975 2450 1725 2525 
Q 1475 2600 1162 2525 
Q 850 2450 650 2175 
L 225 2225 
Q 275 2375 700 4375 
L 2675 4375 
L 2675 3925 
L 1075 3925 
Q 950 3250 825 2850 
Q 1200 3025 1525 3012 
Q 1850 3000 2150 2862 
Q 2450 2725 2587 2487 
Q 2725 2250 2787 2012 
Q 2850 1775 2837 1500 
Q 2825 1225 2725 937 
Q 2625 650 2425 462 
Q 2225 275 1937 162 
Q 1650 50 1275 75 
Q 900 100 562 350 
Q 225 600 100 1200 
L 550 1325 
z
" transform="scale(0.015625)"/>
       </defs>
       <use xlink:href="#SimHei-35"/>
       <use xlink:href="#SimHei-30" x="50"/>
      </g>
     </g>
    </g>
    <g id="xtick_3">
     <g id="line2d_3">
      <g>
       <use xlink:href="#m109a38a62a" x="284.914501" y="158.744466" style="stroke: #000000; stroke-width: 0.8"/>
      </g>
     </g>
     <g id="text_3">
      <!-- 100 -->
      <g transform="translate(277.414501 172.619466) scale(0.1 -0.1)">
       <defs>
        <path id="SimHei-31" d="M 1400 3600 
Q 1075 3275 575 2975 
L 575 3450 
Q 1200 3875 1600 4450 
L 1900 4450 
L 1900 150 
L 1400 150 
L 1400 3600 
z
" transform="scale(0.015625)"/>
       </defs>
       <use xlink:href="#SimHei-31"/>
       <use xlink:href="#SimHei-30" x="50"/>
       <use xlink:href="#SimHei-30" x="100"/>
      </g>
     </g>
    </g>
    <g id="xtick_4">
     <g id="line2d_4">
      <g>
       <use xlink:href="#m109a38a62a" x="389.70567" y="158.744466" style="stroke: #000000; stroke-width: 0.8"/>
      </g>
     </g>
     <g id="text_4">
      <!-- 150 -->
      <g transform="translate(382.20567 172.619466) scale(0.1 -0.1)">
       <use xlink:href="#SimHei-31"/>
       <use xlink:href="#SimHei-35" x="50"/>
       <use xlink:href="#SimHei-30" x="100"/>
      </g>
     </g>
    </g>
    <g id="xtick_5">
     <g id="line2d_5">
      <g>
       <use xlink:href="#m109a38a62a" x="494.496839" y="158.744466" style="stroke: #000000; stroke-width: 0.8"/>
      </g>
     </g>
     <g id="text_5">
      <!-- 200 -->
      <g transform="translate(486.996839 172.619466) scale(0.1 -0.1)">
       <defs>
        <path id="SimHei-32" d="M 300 250 
Q 325 625 650 925 
Q 975 1225 1475 1862 
Q 1975 2500 2125 2850 
Q 2275 3200 2237 3450 
Q 2200 3700 2000 3862 
Q 1800 4025 1537 4000 
Q 1275 3975 1037 3800 
Q 800 3625 675 3275 
L 200 3350 
Q 400 3925 712 4187 
Q 1025 4450 1450 4475 
Q 1700 4500 1900 4462 
Q 2100 4425 2312 4287 
Q 2525 4150 2662 3875 
Q 2800 3600 2762 3212 
Q 2725 2825 2375 2287 
Q 2025 1750 1025 600 
L 2825 600 
L 2825 150 
L 300 150 
L 300 250 
z
" transform="scale(0.015625)"/>
       </defs>
       <use xlink:href="#SimHei-32"/>
       <use xlink:href="#SimHei-30" x="50"/>
       <use xlink:href="#SimHei-30" x="100"/>
      </g>
     </g>
    </g>
    <g id="text_6">
     <!-- 时间 -->
     <g transform="translate(282.249883 185.877279) scale(0.1 -0.1)">
      <defs>
       <path id="SimHei-65f6" d="M 2525 4575 
Q 2500 3675 2500 2400 
Q 2500 1125 2525 400 
L 2000 400 
L 2000 875 
L 1000 875 
L 1000 50 
L 475 50 
Q 500 1200 500 2350 
Q 500 3525 475 4575 
L 2525 4575 
z
M 4875 3825 
Q 4875 4575 4850 5225 
L 5400 5225 
Q 5375 4575 5375 3825 
Q 5750 3825 6175 3850 
L 6175 3375 
Q 5750 3400 5375 3400 
L 5375 50 
Q 5375 -325 5075 -425 
Q 4775 -525 4300 -575 
Q 4300 -275 4025 0 
Q 4500 -50 4687 -25 
Q 4875 0 4875 300 
L 4875 3400 
Q 3625 3400 2775 3375 
L 2775 3850 
Q 3575 3825 4875 3825 
z
M 2000 1300 
L 2000 2550 
L 1000 2550 
L 1000 1300 
L 2000 1300 
z
M 2000 2975 
L 2000 4150 
L 1000 4150 
L 1000 2975 
L 2000 2975 
z
M 3550 2725 
Q 3875 2200 4175 1600 
Q 3925 1525 3650 1375 
Q 3450 1975 3075 2500 
Q 3300 2600 3550 2725 
z
" transform="scale(0.015625)"/>
       <path id="SimHei-95f4" d="M 4450 3550 
Q 4425 3075 4425 2725 
L 4425 1400 
Q 4425 1075 4450 625 
L 1925 625 
Q 1950 1075 1950 1425 
L 1950 2725 
Q 1950 3075 1925 3550 
L 4450 3550 
z
M 5800 4875 
Q 5775 4400 5775 3925 
L 5775 250 
Q 5800 -325 5462 -450 
Q 5125 -575 4725 -625 
Q 4700 -325 4525 -25 
Q 5000 -50 5137 25 
Q 5275 100 5275 350 
L 5275 4450 
L 3775 4450 
Q 3175 4450 2650 4425 
L 2650 4900 
Q 3175 4875 3775 4875 
L 5800 4875 
z
M 550 -525 
Q 600 -25 600 525 
L 600 3150 
Q 600 3675 550 4025 
L 1125 4025 
Q 1100 3650 1100 3300 
L 1100 500 
Q 1100 0 1125 -525 
L 550 -525 
z
M 3950 1025 
L 3950 1950 
L 2425 1950 
L 2425 1025 
L 3950 1025 
z
M 3950 2350 
L 3950 3150 
L 2425 3150 
L 2425 2350 
L 3950 2350 
z
M 1525 5300 
Q 1750 5000 2225 4350 
Q 1950 4225 1700 4075 
Q 1450 4575 1075 5025 
Q 1350 5225 1525 5300 
z
" transform="scale(0.015625)"/>
      </defs>
      <use xlink:href="#SimHei-65f6"/>
      <use xlink:href="#SimHei-95f4" x="100"/>
     </g>
    </g>
   </g>
   <g id="matplotlib.axis_2">
    <g id="ytick_1">
     <g id="line2d_6">
      <defs>
       <path id="m00aab38aaf" d="M 0 0 
L -3.5 0 
" style="stroke: #000000; stroke-width: 0.8"/>
      </defs>
      <g>
       <use xlink:href="#m00aab38aaf" x="53.640391" y="140.884783" style="stroke: #000000; stroke-width: 0.8"/>
      </g>
     </g>
     <g id="text_7">
      <!-- 1 -->
      <g transform="translate(41.640391 144.322283) scale(0.1 -0.1)">
       <use xlink:href="#SimHei-31"/>
      </g>
     </g>
    </g>
    <g id="ytick_2">
     <g id="line2d_7">
      <g>
       <use xlink:href="#m00aab38aaf" x="53.640391" y="104.09964" style="stroke: #000000; stroke-width: 0.8"/>
      </g>
     </g>
     <g id="text_8">
      <!-- 2 -->
      <g transform="translate(41.640391 107.53714) scale(0.1 -0.1)">
       <use xlink:href="#SimHei-32"/>
      </g>
     </g>
    </g>
    <g id="ytick_3">
     <g id="line2d_8">
      <g>
       <use xlink:href="#m00aab38aaf" x="53.640391" y="67.314497" style="stroke: #000000; stroke-width: 0.8"/>
      </g>
     </g>
     <g id="text_9">
      <!-- 3 -->
      <g transform="translate(41.640391 70.751997) scale(0.1 -0.1)">
       <defs>
        <path id="SimHei-33" d="M 250 1225 
L 700 1300 
Q 800 975 1025 762 
Q 1250 550 1587 562 
Q 1925 575 2125 837 
Q 2325 1100 2300 1437 
Q 2275 1775 2037 1962 
Q 1800 2150 1275 2225 
L 1275 2550 
Q 1800 2600 2037 2825 
Q 2275 3050 2250 3412 
Q 2225 3775 1925 3937 
Q 1625 4100 1287 3975 
Q 950 3850 750 3275 
L 300 3350 
Q 450 3800 712 4100 
Q 975 4400 1425 4450 
Q 1875 4500 2212 4337 
Q 2550 4175 2687 3837 
Q 2825 3500 2725 3100 
Q 2625 2700 2150 2400 
Q 2500 2250 2687 1950 
Q 2875 1650 2812 1162 
Q 2750 675 2375 375 
Q 2000 75 1525 87 
Q 1050 100 700 387 
Q 350 675 250 1225 
z
" transform="scale(0.015625)"/>
       </defs>
       <use xlink:href="#SimHei-33"/>
      </g>
     </g>
    </g>
    <g id="text_10">
     <!-- revenue -->
     <g transform="translate(36.390391 112.407585) rotate(-90) scale(0.1 -0.1)">
      <defs>
       <path id="SimHei-72" d="M 2500 2425 
Q 2025 2500 1700 2287 
Q 1375 2075 1150 1550 
L 1150 125 
L 650 125 
L 650 2925 
L 1150 2925 
L 1150 2200 
Q 1375 2600 1712 2787 
Q 2050 2975 2500 2975 
L 2500 2425 
z
" transform="scale(0.015625)"/>
       <path id="SimHei-65" d="M 2850 1075 
Q 2800 625 2450 350 
Q 2100 75 1625 75 
Q 1025 75 637 462 
Q 250 850 250 1525 
Q 250 2200 637 2587 
Q 1025 2975 1625 2975 
Q 2150 2975 2487 2637 
Q 2825 2300 2825 1525 
L 800 1525 
Q 800 975 1037 750 
Q 1275 525 1625 525 
Q 1900 525 2075 662 
Q 2250 800 2300 1075 
L 2850 1075 
z
M 2250 1925 
Q 2200 2275 2025 2412 
Q 1850 2550 1575 2550 
Q 1325 2550 1125 2412 
Q 925 2275 825 1925 
L 2250 1925 
z
" transform="scale(0.015625)"/>
       <path id="SimHei-76" d="M 2875 2925 
L 1825 75 
L 1275 75 
L 225 2925 
L 750 2925 
L 1525 750 
L 1575 750 
L 2350 2925 
L 2875 2925 
z
" transform="scale(0.015625)"/>
       <path id="SimHei-6e" d="M 2800 125 
L 2300 125 
L 2300 1925 
Q 2300 2225 2150 2400 
Q 2000 2575 1750 2575 
Q 1425 2575 1137 2237 
Q 850 1900 850 1400 
L 850 125 
L 350 125 
L 350 2925 
L 850 2925 
L 850 2400 
Q 1050 2675 1287 2825 
Q 1525 2975 1900 2975 
Q 2350 2975 2575 2725 
Q 2800 2475 2800 2100 
L 2800 125 
z
" transform="scale(0.015625)"/>
       <path id="SimHei-75" d="M 2800 125 
L 2300 125 
L 2300 650 
Q 2100 375 1862 225 
Q 1625 75 1250 75 
Q 800 75 575 325 
Q 350 575 350 950 
L 350 2925 
L 850 2925 
L 850 1125 
Q 850 825 1000 650 
Q 1150 475 1400 475 
Q 1725 475 2012 812 
Q 2300 1150 2300 1650 
L 2300 2925 
L 2800 2925 
L 2800 125 
z
" transform="scale(0.015625)"/>
      </defs>
      <use xlink:href="#SimHei-72"/>
      <use xlink:href="#SimHei-65" x="50"/>
      <use xlink:href="#SimHei-76" x="100"/>
      <use xlink:href="#SimHei-65" x="150"/>
      <use xlink:href="#SimHei-6e" x="200"/>
      <use xlink:href="#SimHei-75" x="250"/>
      <use xlink:href="#SimHei-65" x="300"/>
     </g>
    </g>
    <g id="text_11">
     <!-- 1e6 -->
     <g transform="translate(53.640391 28.070703) scale(0.1 -0.1)">
      <defs>
       <path id="SimHei-36" d="M 250 1612 
Q 275 1975 387 2225 
Q 500 2475 725 2850 
L 1750 4450 
L 2325 4450 
L 1275 2800 
Q 1950 2975 2350 2750 
Q 2750 2525 2887 2237 
Q 3025 1950 3037 1612 
Q 3050 1275 2937 950 
Q 2825 625 2537 362 
Q 2250 100 1737 75 
Q 1225 50 862 262 
Q 500 475 362 862 
Q 225 1250 250 1612 
z
M 1025 787 
Q 1250 550 1625 525 
Q 2000 500 2250 775 
Q 2500 1050 2500 1575 
Q 2500 2100 2187 2300 
Q 1875 2500 1487 2450 
Q 1100 2400 925 2075 
Q 750 1750 775 1387 
Q 800 1025 1025 787 
z
" transform="scale(0.015625)"/>
      </defs>
      <use xlink:href="#SimHei-31"/>
      <use xlink:href="#SimHei-65" x="50"/>
      <use xlink:href="#SimHei-36" x="100"/>
     </g>
    </g>
   </g>
   <g id="line2d_9">
    <path d="M 75.332163 76.349971 
L 77.427986 82.606939 
L 79.523809 83.963943 
L 81.619633 71.904547 
L 83.715456 96.155766 
L 85.81128 83.13499 
L 87.907103 97.790743 
L 90.002926 87.02649 
L 92.09875 103.63909 
L 94.194573 113.703812 
L 98.38622 111.123456 
L 100.482043 105.838106 
L 102.577867 122.205103 
L 104.67369 122.109952 
L 106.769513 119.224219 
L 108.865337 118.593354 
L 110.96116 127.788904 
L 113.056984 100.276315 
L 115.152807 136.43985 
L 117.24863 135.692928 
L 119.344454 134.746078 
L 121.440277 144.975045 
L 123.5361 144.604742 
L 125.631924 144.9542 
L 127.727747 107.212583 
L 129.823571 140.632988 
L 134.015217 150.91793 
L 136.111041 149.94386 
L 138.206864 140.914333 
L 140.302688 146.555458 
L 142.398511 136.249242 
L 144.494334 135.698875 
L 146.590158 131.958623 
L 148.685981 130.088956 
L 150.781804 123.049752 
L 152.877628 123.0183 
L 154.973451 120.409866 
L 157.069275 126.49419 
L 159.165098 103.408692 
L 161.260921 97.819619 
L 163.356745 94.989064 
L 165.452568 97.035912 
L 167.548392 107.954233 
L 169.644215 95.532012 
L 171.740038 89.163585 
L 173.835862 94.813415 
L 175.931685 79.706492 
L 178.027508 68.242525 
L 180.123332 73.710391 
L 182.219155 60.586495 
L 184.314979 68.613135 
L 186.410802 72.886527 
L 188.506625 76.872749 
L 190.602449 90.102587 
L 192.698272 95.605399 
L 194.794095 43.057455 
L 196.889919 73.67802 
L 198.985742 102.549392 
L 203.177389 97.481318 
L 205.273212 90.466576 
L 207.369036 110.921199 
L 209.464859 105.877527 
L 211.560683 107.107255 
L 213.656506 123.507849 
L 215.752329 123.306451 
L 217.848153 129.843109 
L 219.943976 134.991619 
L 222.039799 127.757208 
L 224.135623 127.795403 
L 226.231446 134.400788 
L 228.32727 105.74461 
L 230.423093 139.783865 
L 232.518916 94.419875 
L 234.61474 147.735219 
L 236.710563 145.266935 
L 238.806387 143.857574 
L 240.90221 147.273565 
L 242.998033 146.998535 
L 245.093857 150.218216 
L 247.18968 139.545558 
L 249.285503 143.535827 
L 251.381327 136.215154 
L 253.47715 134.108224 
L 255.572974 129.278764 
L 257.668797 130.608485 
L 259.76462 124.117686 
L 261.860444 120.52954 
L 263.956267 127.095688 
L 266.052091 105.199148 
L 268.147914 91.723953 
L 270.243737 104.023679 
L 272.339561 103.091053 
L 274.435384 108.272179 
L 276.531207 84.613753 
L 278.627031 90.933134 
L 280.722854 67.189734 
L 282.818678 93.664247 
L 284.914501 82.59057 
L 287.010324 83.30132 
L 289.106148 52.339817 
L 291.201971 74.550441 
L 293.297795 56.162897 
L 295.393618 63.498284 
L 297.489441 74.896835 
L 299.585265 94.520911 
L 301.681088 89.415869 
L 303.776911 36.874056 
L 305.872735 63.287934 
L 307.968558 95.707907 
L 310.064382 96.647215 
L 312.160205 107.105231 
L 314.256028 109.15913 
L 316.351852 104.984261 
L 318.447675 110.45176 
L 320.543498 116.743858 
L 322.639322 114.995767 
L 324.735145 122.929403 
L 326.830969 114.129845 
L 328.926792 133.224399 
L 331.022615 126.576834 
L 333.118439 89.079101 
L 335.214262 136.039382 
L 337.310086 142.723488 
L 339.405909 148.194052 
L 341.501732 148.983461 
L 343.597556 144.947824 
L 345.693379 145.929865 
L 347.789202 81.969637 
L 349.885026 144.379065 
L 351.980849 144.175152 
L 354.076673 143.685849 
L 356.172496 141.531466 
L 358.268319 138.794957 
L 360.364143 143.374156 
L 362.459966 136.241701 
L 364.55579 135.734618 
L 366.651613 123.253541 
L 368.747436 117.077684 
L 370.84326 103.750978 
L 372.939083 121.629845 
L 375.034906 125.43067 
L 377.13073 116.108089 
L 379.226553 101.852374 
L 381.322377 98.798533 
L 383.4182 101.942069 
L 385.514023 96.435639 
L 387.609847 81.917892 
L 389.70567 92.578779 
L 391.801494 74.189395 
L 393.897317 79.633474 
L 395.99314 69.231923 
L 398.088964 75.814011 
L 402.28061 83.516513 
L 404.376434 80.05074 
L 406.472257 98.776707 
L 408.568081 87.484465 
L 410.663904 86.829506 
L 412.759727 59.65767 
L 414.855551 76.626595 
L 416.951374 83.27318 
L 419.047198 83.690201 
L 421.143021 105.581836 
L 423.238844 88.484837 
L 425.334668 105.826335 
L 427.430491 100.901724 
L 429.526314 116.02477 
L 431.622138 104.967279 
L 433.717961 123.199958 
L 435.813785 125.232705 
L 437.909608 135.114665 
L 440.005431 131.606466 
L 442.101255 133.182955 
L 444.197078 134.123612 
L 446.292901 143.879339 
L 448.388725 92.931855 
L 450.484548 144.906318 
L 452.580372 141.255822 
L 454.676195 143.982398 
L 456.772018 150.220668 
L 458.867842 151.045391 
L 460.963665 144.448343 
L 463.059489 152.941113 
L 465.155312 150.45689 
L 467.251135 147.070818 
L 469.346959 143.095692 
L 471.442782 142.85242 
L 473.538605 138.533722 
L 477.730252 122.461741 
L 479.826076 109.870555 
L 481.921899 124.560517 
L 484.017722 126.26508 
L 486.113546 106.659396 
L 488.209369 100.164795 
L 490.305193 95.500806 
L 492.401016 82.942727 
L 494.496839 85.30421 
L 496.592663 93.960919 
L 498.688486 85.517196 
L 500.784309 87.316787 
L 502.880133 97.374396 
L 504.975956 90.205646 
L 507.07178 77.142568 
L 509.167603 75.856437 
L 509.167603 75.856437 
" clip-path="url(#p58d6ab2d25)" style="fill: none; stroke: #ff0000; stroke-width: 1.5; stroke-linecap: square"/>
   </g>
   <g id="line2d_10">
    <path d="M 75.332163 93.54793 
L 77.427986 103.059195 
L 79.523809 107.125272 
L 81.619633 86.794524 
L 83.715456 113.935166 
L 85.81128 89.785993 
L 87.907103 108.787236 
L 90.002926 107.69793 
L 92.09875 115.384965 
L 94.194573 117.270742 
L 96.290396 123.345292 
L 98.38622 114.254004 
L 100.482043 93.620363 
L 102.577867 125.915217 
L 104.67369 109.06463 
L 106.769513 122.623852 
L 108.865337 124.725805 
L 110.96116 135.313373 
L 113.056984 109.016887 
L 115.152807 135.933064 
L 119.344454 126.791127 
L 121.440277 135.99326 
L 123.5361 127.707753 
L 125.631924 130.971997 
L 127.727747 114.769857 
L 129.823571 120.797837 
L 131.919394 134.753658 
L 134.015217 134.753658 
L 136.111041 135.582765 
L 138.206864 113.474057 
L 140.302688 135.582765 
L 142.398511 133.601014 
L 144.494334 135.420748 
L 146.590158 119.574766 
L 148.685981 135.420748 
L 150.781804 98.191599 
L 152.877628 130.650053 
L 154.973451 106.286382 
L 157.069275 115.910355 
L 159.165098 116.601042 
L 161.260921 108.58706 
L 163.356745 119.72897 
L 165.452568 107.69793 
L 167.548392 119.72897 
L 169.644215 84.870829 
L 171.740038 109.125931 
L 173.835862 83.89652 
L 175.931685 104.35697 
L 178.027508 84.821643 
L 180.123332 104.35697 
L 182.219155 84.107277 
L 184.314979 103.432427 
L 186.410802 96.461923 
L 188.506625 96.519581 
L 190.602449 113.310118 
L 192.698272 108.616843 
L 194.794095 79.612646 
L 196.889919 83.546724 
L 198.985742 107.491995 
L 201.081566 105.463069 
L 203.177389 103.823043 
L 205.273212 86.368598 
L 207.369036 129.222791 
L 209.464859 109.635658 
L 211.560683 121.819407 
L 213.656506 112.86931 
L 215.752329 128.250916 
L 217.848153 130.210054 
L 219.943976 126.758507 
L 222.039799 126.740361 
L 224.135623 134.529956 
L 226.231446 124.864235 
L 228.32727 127.00513 
L 230.423093 119.72897 
L 232.518916 124.097325 
L 234.61474 122.934765 
L 236.710563 125.915217 
L 238.806387 114.460607 
L 240.90221 134.746737 
L 242.998033 124.760917 
L 245.093857 135.313373 
L 247.18968 121.534196 
L 249.285503 123.63039 
L 251.381327 108.583673 
L 253.47715 133.037547 
L 255.572974 122.285606 
L 257.668797 133.037547 
L 259.76462 122.327362 
L 261.860444 125.677673 
L 263.956267 121.779638 
L 266.052091 115.216817 
L 268.147914 90.308311 
L 270.243737 123.574108 
L 272.339561 102.550606 
L 274.435384 123.574108 
L 276.531207 85.100728 
L 278.627031 100.950864 
L 280.722854 80.850074 
L 282.818678 107.491995 
L 284.914501 86.368598 
L 287.010324 100.946877 
L 289.106148 82.970293 
L 291.201971 113.291204 
L 293.297795 85.692994 
L 295.393618 90.252243 
L 297.489441 88.623597 
L 299.585265 94.281768 
L 301.681088 88.39551 
L 303.776911 79.048857 
L 305.872735 90.74416 
L 310.064382 97.097781 
L 312.160205 109.146838 
L 314.256028 107.348395 
L 316.351852 96.238635 
L 318.447675 119.889333 
L 320.543498 126.301592 
L 322.639322 114.72604 
L 324.735145 123.574108 
L 326.830969 100.950864 
L 328.926792 129.546461 
L 331.022615 123.529054 
L 333.118439 129.222791 
L 335.214262 129.546461 
L 337.310086 126.740361 
L 339.405909 124.864235 
L 341.501732 113.956964 
L 343.597556 131.690661 
L 345.693379 113.113254 
L 347.789202 119.889333 
L 349.885026 125.508992 
L 351.980849 134.894488 
L 354.076673 131.51761 
L 356.172496 129.222791 
L 358.268319 111.543464 
L 360.364143 121.023477 
L 362.459966 108.623054 
L 364.55579 129.476254 
L 366.651613 123.021538 
L 368.747436 123.574108 
L 370.84326 108.100791 
L 372.939083 113.291204 
L 377.13073 101.85891 
L 379.226553 102.312208 
L 381.322377 99.145238 
L 383.4182 98.082211 
L 385.514023 98.422557 
L 387.609847 87.143757 
L 389.70567 90.252243 
L 391.801494 87.371844 
L 393.897317 97.990554 
L 395.99314 80.948054 
L 398.088964 94.735888 
L 400.184787 84.107277 
L 402.28061 121.304448 
L 404.376434 79.048857 
L 406.472257 97.990554 
L 408.568081 95.429255 
L 410.663904 97.990554 
L 412.759727 79.048857 
L 414.855551 91.739615 
L 416.951374 90.252243 
L 419.047198 96.681008 
L 421.143021 90.252243 
L 423.238844 96.62284 
L 425.334668 95.429255 
L 427.430491 116.535135 
L 429.526314 125.915217 
L 431.622138 96.416318 
L 433.717961 104.093651 
L 435.813785 113.516757 
L 437.909608 107.491995 
L 440.005431 123.574108 
L 442.101255 113.310118 
L 444.197078 112.866658 
L 446.292901 129.833996 
L 448.388725 115.979225 
L 450.484548 118.394718 
L 452.580372 123.574108 
L 454.676195 113.113254 
L 456.772018 122.166014 
L 458.867842 134.838177 
L 460.963665 129.97707 
L 463.059489 134.399128 
L 465.155312 134.894488 
L 467.251135 132.68008 
L 469.346959 129.07702 
L 471.442782 127.005687 
L 473.538605 121.095816 
L 475.634429 105.04327 
L 477.730252 108.321945 
L 479.826076 92.957751 
L 481.921899 121.304448 
L 484.017722 113.113254 
L 486.113546 97.990554 
L 488.209369 90.74416 
L 490.305193 91.739615 
L 492.401016 93.236271 
L 494.496839 96.62284 
L 496.592663 95.429255 
L 498.688486 89.761017 
L 500.784309 95.429255 
L 502.880133 83.662999 
L 504.975956 95.429255 
L 507.07178 95.429255 
L 509.167603 113.291204 
L 509.167603 113.291204 
" clip-path="url(#p58d6ab2d25)" style="fill: none; stroke-dasharray: 5.55,2.4; stroke-dashoffset: 0; stroke: #008000; stroke-width: 1.5"/>
   </g>
   <g id="patch_3">
    <path d="M 53.640391 158.744466 
L 53.640391 31.070703 
" style="fill: none; stroke: #000000; stroke-width: 0.8; stroke-linejoin: miter; stroke-linecap: square"/>
   </g>
   <g id="patch_4">
    <path d="M 530.859375 158.744466 
L 530.859375 31.070703 
" style="fill: none; stroke: #000000; stroke-width: 0.8; stroke-linejoin: miter; stroke-linecap: square"/>
   </g>
   <g id="patch_5">
    <path d="M 53.640391 158.744466 
L 530.859375 158.744466 
" style="fill: none; stroke: #000000; stroke-width: 0.8; stroke-linejoin: miter; stroke-linecap: square"/>
   </g>
   <g id="patch_6">
    <path d="M 53.640391 31.070703 
L 530.859375 31.070703 
" style="fill: none; stroke: #000000; stroke-width: 0.8; stroke-linejoin: miter; stroke-linecap: square"/>
   </g>
   <g id="text_12">
    <!-- 全部时间上的拟合情况 -->
    <g transform="translate(232.249883 25.070703) scale(0.12 -0.12)">
     <defs>
      <path id="SimHei-5168" d="M 3475 4825 
Q 4350 3425 6125 3025 
Q 5900 2750 5825 2450 
Q 5325 2650 4975 2875 
L 4975 2475 
Q 4700 2500 4100 2500 
L 3500 2500 
L 3500 1500 
L 4450 1500 
Q 4975 1500 5300 1525 
L 5300 1075 
Q 4975 1100 4450 1100 
L 3500 1100 
L 3500 -25 
L 4475 -25 
Q 5225 -25 5700 25 
L 5700 -500 
Q 5250 -425 4525 -425 
L 1775 -425 
Q 1025 -425 650 -450 
L 650 0 
Q 1025 -25 1775 -25 
L 3000 -25 
L 3000 1100 
L 2300 1100 
Q 1450 1100 1175 1075 
L 1175 1525 
Q 1450 1500 2275 1500 
L 3000 1500 
L 3000 2500 
L 2500 2500 
Q 1725 2500 1500 2475 
L 1500 2875 
Q 1275 2700 650 2350 
Q 500 2650 300 2875 
Q 900 3025 1700 3625 
Q 2500 4225 2975 5200 
Q 3275 5075 3600 4950 
L 3475 4825 
z
M 1650 2950 
Q 1950 2925 2525 2925 
L 4025 2925 
Q 4525 2925 4800 2950 
Q 3725 3500 3200 4550 
Q 2525 3525 1650 2950 
z
" transform="scale(0.015625)"/>
      <path id="SimHei-90e8" d="M 5300 2650 
Q 5750 2200 5962 1812 
Q 6175 1425 6150 1025 
Q 6125 625 5812 412 
Q 5500 200 4875 125 
Q 4825 400 4650 725 
Q 5250 725 5437 862 
Q 5625 1000 5612 1225 
Q 5600 1450 5350 1850 
Q 5100 2250 4775 2575 
Q 4975 3025 5300 4300 
L 4400 4300 
L 4400 -625 
L 3900 -625 
Q 3925 -100 3925 575 
L 3925 3625 
Q 3925 4175 3875 4725 
L 5975 4725 
Q 5575 3425 5300 2650 
z
M 3225 1775 
Q 3200 1200 3200 625 
Q 3200 50 3225 -575 
L 2725 -575 
L 2725 -75 
L 1375 -75 
L 1375 -575 
L 875 -575 
Q 900 -50 900 525 
Q 900 1125 875 1775 
L 3225 1775 
z
M 1925 5275 
Q 2325 4775 2450 4550 
Q 2300 4475 2175 4400 
Q 3225 4400 3500 4425 
L 3500 3950 
Q 3325 3950 2825 3975 
L 3250 3775 
Q 3075 3500 2750 2800 
Q 3350 2800 3675 2825 
L 3675 2350 
Q 3350 2375 3025 2375 
L 1150 2375 
Q 700 2375 400 2350 
L 400 2825 
Q 575 2800 1350 2800 
Q 1175 3225 900 3675 
Q 1100 3775 1325 3900 
Q 1575 3550 1850 3025 
Q 1600 2900 1475 2800 
L 2275 2800 
Q 2600 3575 2675 3975 
L 2075 3975 
Q 925 3975 575 3950 
L 575 4425 
Q 875 4400 1925 4400 
Q 1725 4800 1525 5025 
Q 1750 5150 1925 5275 
z
M 2725 325 
L 2725 1375 
L 1375 1375 
L 1375 325 
L 2725 325 
z
" transform="scale(0.015625)"/>
      <path id="SimHei-4e0a" d="M 3250 5075 
Q 3225 4650 3225 4275 
L 3225 3225 
L 4650 3225 
Q 5150 3225 5600 3250 
L 5600 2700 
Q 5100 2725 4600 2725 
L 3225 2725 
L 3225 200 
L 5200 200 
Q 5575 200 6075 225 
L 6075 -300 
Q 5600 -275 5200 -275 
L 1250 -275 
Q 850 -275 350 -300 
L 350 225 
Q 825 200 1250 200 
L 2700 200 
L 2700 4250 
Q 2700 4625 2675 5075 
L 3250 5075 
z
" transform="scale(0.015625)"/>
      <path id="SimHei-7684" d="M 2100 4975 
Q 1975 4750 1750 3950 
L 2875 3950 
Q 2850 3525 2850 2875 
L 2850 675 
Q 2850 300 2875 -400 
L 2375 -400 
L 2375 100 
L 1100 100 
L 1100 -450 
L 600 -450 
Q 625 350 625 550 
L 625 2850 
Q 625 3525 600 3950 
L 1325 3950 
Q 1450 4525 1525 5150 
Q 1875 5025 2100 4975 
z
M 5825 3075 
Q 5800 1550 5700 175 
Q 5650 -275 5225 -425 
Q 4800 -575 4275 -625 
Q 4250 -350 4050 -50 
Q 4550 -75 4837 -25 
Q 5125 25 5200 200 
Q 5275 375 5312 1225 
Q 5350 2075 5375 3600 
L 3925 3600 
Q 3725 3125 3350 2475 
Q 3175 2650 2925 2750 
Q 3150 3050 3350 3475 
Q 3550 3900 3700 4400 
Q 3850 4900 3875 5175 
Q 4225 5025 4475 4950 
Q 4350 4750 4262 4512 
Q 4175 4275 4075 4050 
L 5850 4050 
Q 5825 3525 5825 3075 
z
M 2375 525 
L 2375 1850 
L 1100 1850 
L 1100 525 
L 2375 525 
z
M 2375 2275 
L 2375 3525 
L 1100 3525 
L 1100 2275 
L 2375 2275 
z
M 4350 2050 
Q 4500 1750 4700 1275 
Q 4525 1200 4225 1025 
Q 4050 1500 3900 1837 
Q 3750 2175 3600 2400 
Q 3775 2500 4050 2650 
L 4350 2050 
z
" transform="scale(0.015625)"/>
      <path id="SimHei-62df" d="M 1675 125 
Q 1675 -175 1500 -275 
Q 1325 -375 800 -500 
Q 750 -225 575 0 
Q 1225 25 1225 275 
L 1225 1875 
Q 700 1625 475 1500 
Q 375 1800 250 1975 
Q 525 2050 1225 2325 
L 1225 3550 
Q 725 3550 350 3525 
L 350 4000 
Q 700 3950 1225 3950 
Q 1225 4625 1200 5225 
L 1725 5225 
Q 1675 4550 1675 3950 
Q 2025 3950 2325 3975 
L 2325 3525 
Q 1975 3550 1675 3550 
L 1675 2475 
Q 2150 2675 2300 2800 
Q 2300 2550 2325 2325 
Q 2125 2250 1675 2050 
L 1675 125 
z
M 4950 5050 
Q 5275 5025 5500 5000 
Q 5425 4650 5450 3337 
Q 5475 2025 5250 1275 
Q 5850 550 6200 -50 
Q 5975 -225 5775 -400 
Q 5525 100 5050 800 
Q 4800 450 4437 112 
Q 4075 -225 3325 -650 
Q 3175 -450 2925 -250 
Q 3425 -25 3900 325 
Q 4375 675 4612 1050 
Q 4850 1425 4925 2150 
Q 5000 2875 4950 5050 
z
M 2500 700 
Q 2675 875 2675 1200 
L 2675 3475 
Q 2675 3925 2650 4400 
L 3175 4400 
Q 3125 3975 3125 3500 
L 3125 1175 
Q 3775 1850 4050 2200 
Q 4150 1925 4300 1725 
Q 4025 1500 2900 300 
L 2500 700 
z
M 3800 5100 
Q 4375 4025 4575 3550 
Q 4250 3400 4100 3300 
Q 3850 3875 3375 4875 
Q 3575 4950 3800 5100 
z
" transform="scale(0.015625)"/>
      <path id="SimHei-5408" d="M 5050 1800 
Q 5025 1550 5025 650 
Q 5025 -250 5050 -525 
L 4525 -525 
L 4525 -50 
L 1750 -50 
L 1750 -600 
L 1250 -600 
Q 1275 -300 1275 550 
Q 1275 1425 1250 1800 
L 5050 1800 
z
M 3375 4800 
Q 4100 3925 4550 3600 
Q 5000 3275 5375 3100 
Q 5750 2925 6100 2825 
Q 5850 2550 5775 2300 
Q 5275 2525 4875 2775 
Q 4475 3025 4062 3412 
Q 3650 3800 3125 4475 
Q 2650 3800 2187 3362 
Q 1725 2925 1400 2675 
Q 1075 2425 675 2175 
Q 625 2275 275 2575 
Q 800 2825 1275 3175 
Q 1750 3525 2225 4062 
Q 2700 4600 3000 5225 
Q 3275 5050 3500 4950 
L 3375 4800 
z
M 4525 350 
L 4525 1400 
L 1750 1400 
L 1750 350 
L 4525 350 
z
M 3925 2825 
Q 4325 2825 4625 2850 
L 4625 2375 
Q 4300 2400 3950 2400 
L 2550 2400 
Q 2025 2400 1700 2375 
L 1700 2850 
Q 2175 2825 2550 2825 
L 3925 2825 
z
" transform="scale(0.015625)"/>
      <path id="SimHei-60c5" d="M 2775 1475 
Q 2775 2050 2750 2525 
L 5600 2525 
Q 5575 2100 5575 1725 
L 5575 -150 
Q 5575 -425 5375 -500 
Q 5175 -575 4875 -625 
Q 4850 -400 4700 -150 
Q 5050 -150 5100 -75 
Q 5150 0 5150 475 
L 3225 475 
L 3225 -625 
L 2750 -625 
Q 2775 -50 2775 375 
L 2775 1475 
z
M 2375 3250 
Q 2975 3225 3475 3225 
L 3975 3225 
L 3975 3625 
L 3500 3625 
Q 3075 3625 2625 3600 
L 2625 4025 
Q 3075 4000 3500 4000 
L 3975 4000 
L 3975 4350 
L 3450 4350 
Q 3050 4350 2475 4325 
L 2475 4750 
Q 3075 4725 3450 4725 
L 3975 4725 
Q 3975 4975 3950 5225 
L 4475 5225 
Q 4450 4975 4450 4725 
L 5125 4725 
Q 5550 4725 5925 4750 
L 5925 4325 
Q 5550 4350 5125 4350 
L 4450 4350 
L 4450 4000 
L 4925 4000 
Q 5325 4000 5750 4025 
L 5750 3600 
Q 5300 3625 4925 3625 
L 4450 3625 
L 4450 3225 
L 5175 3225 
Q 5775 3225 6150 3250 
L 6150 2825 
Q 5775 2850 5150 2850 
L 3500 2850 
Q 2850 2850 2375 2825 
L 2375 3250 
z
M 1675 5225 
Q 1650 4800 1650 4400 
L 1650 425 
Q 1650 -100 1675 -600 
L 1150 -600 
Q 1200 -100 1200 425 
L 1200 4325 
Q 1200 4825 1150 5225 
L 1675 5225 
z
M 5125 850 
L 5125 1325 
L 3225 1325 
L 3225 850 
L 5125 850 
z
M 5125 1700 
L 5125 2150 
L 3225 2150 
L 3225 1700 
L 5125 1700 
z
M 1050 3900 
Q 1000 3675 725 2275 
Q 500 2350 250 2375 
Q 425 2750 575 3975 
Q 800 3925 1050 3900 
z
M 1975 3125 
Q 1925 3425 1775 3975 
Q 1950 4000 2200 4075 
Q 2350 3550 2450 3275 
Q 2175 3200 1975 3125 
z
" transform="scale(0.015625)"/>
      <path id="SimHei-51b5" d="M 5450 4875 
Q 5425 4500 5425 3675 
Q 5425 2850 5450 2375 
L 4575 2375 
L 4575 400 
Q 4575 50 4762 25 
Q 4950 0 5200 12 
Q 5450 25 5500 187 
Q 5550 350 5575 825 
Q 5850 675 6150 600 
Q 5975 -175 5775 -287 
Q 5575 -400 5175 -412 
Q 4775 -425 4437 -362 
Q 4100 -300 4100 200 
L 4100 2375 
L 3475 2375 
Q 3500 150 1600 -625 
Q 1525 -375 1275 -150 
Q 3000 375 3000 2375 
L 2325 2375 
Q 2350 2850 2350 3675 
Q 2350 4525 2325 4875 
L 5450 4875 
z
M 4900 2775 
L 4900 4475 
L 2850 4475 
L 2850 2775 
L 4900 2775 
z
M 2025 2200 
Q 1750 1725 1350 1000 
Q 950 275 775 0 
Q 525 175 300 300 
Q 800 975 1600 2500 
Q 1850 2300 2025 2200 
z
M 950 4950 
Q 1100 4775 1350 4462 
Q 1600 4150 1850 3800 
Q 1575 3625 1375 3450 
Q 1075 4025 525 4600 
Q 775 4825 950 4950 
z
" transform="scale(0.015625)"/>
     </defs>
     <use xlink:href="#SimHei-5168"/>
     <use xlink:href="#SimHei-90e8" x="100"/>
     <use xlink:href="#SimHei-65f6" x="200"/>
     <use xlink:href="#SimHei-95f4" x="300"/>
     <use xlink:href="#SimHei-4e0a" x="400"/>
     <use xlink:href="#SimHei-7684" x="500"/>
     <use xlink:href="#SimHei-62df" x="600"/>
     <use xlink:href="#SimHei-5408" x="700"/>
     <use xlink:href="#SimHei-60c5" x="800"/>
     <use xlink:href="#SimHei-51b5" x="900"/>
    </g>
   </g>
   <g id="legend_1">
    <g id="patch_7">
     <path d="M 426.859375 65.648828 
L 523.859375 65.648828 
Q 525.859375 65.648828 525.859375 63.648828 
L 525.859375 38.070703 
Q 525.859375 36.070703 523.859375 36.070703 
L 426.859375 36.070703 
Q 424.859375 36.070703 424.859375 38.070703 
L 424.859375 63.648828 
Q 424.859375 65.648828 426.859375 65.648828 
z
" style="fill: #ffffff; opacity: 0.8; stroke: #cccccc; stroke-linejoin: miter"/>
    </g>
    <g id="line2d_11">
     <path d="M 428.859375 43.570703 
L 438.859375 43.570703 
L 448.859375 43.570703 
" style="fill: none; stroke: #ff0000; stroke-width: 1.5; stroke-linecap: square"/>
    </g>
    <g id="text_13">
     <!-- real -->
     <g transform="translate(456.859375 47.070703) scale(0.1 -0.1)">
      <defs>
       <path id="SimHei-61" d="M 2875 125 
L 2275 125 
Q 2225 175 2200 262 
Q 2175 350 2175 475 
Q 2000 275 1750 175 
Q 1500 75 1225 75 
Q 825 75 550 275 
Q 275 475 275 850 
Q 275 1225 525 1450 
Q 775 1675 1300 1750 
Q 1650 1800 1912 1875 
Q 2175 1950 2175 2075 
Q 2175 2225 2062 2375 
Q 1950 2525 1575 2525 
Q 1275 2525 1137 2412 
Q 1000 2300 950 2100 
L 400 2100 
Q 450 2500 762 2737 
Q 1075 2975 1575 2975 
Q 2125 2975 2400 2725 
Q 2675 2475 2675 2025 
L 2675 650 
Q 2675 500 2725 375 
Q 2775 250 2875 125 
z
M 2175 1050 
L 2175 1550 
Q 2025 1500 1887 1462 
Q 1750 1425 1425 1375 
Q 1050 1325 937 1200 
Q 825 1075 825 900 
Q 825 750 937 637 
Q 1050 525 1275 525 
Q 1500 525 1762 650 
Q 2025 775 2175 1050 
z
" transform="scale(0.015625)"/>
       <path id="SimHei-6c" d="M 1825 125 
L 1325 125 
L 1325 4400 
L 1825 4400 
L 1825 125 
z
" transform="scale(0.015625)"/>
      </defs>
      <use xlink:href="#SimHei-72"/>
      <use xlink:href="#SimHei-65" x="50"/>
      <use xlink:href="#SimHei-61" x="100"/>
      <use xlink:href="#SimHei-6c" x="150"/>
     </g>
    </g>
    <g id="line2d_12">
     <path d="M 428.859375 56.820703 
L 438.859375 56.820703 
L 448.859375 56.820703 
" style="fill: none; stroke-dasharray: 5.55,2.4; stroke-dashoffset: 0; stroke: #008000; stroke-width: 1.5"/>
    </g>
    <g id="text_14">
     <!-- LGBM_simulate -->
     <g transform="translate(456.859375 60.320703) scale(0.1 -0.1)">
      <defs>
       <path id="SimHei-4c" d="M 2900 125 
L 300 125 
L 300 4400 
L 875 4400 
L 875 600 
L 2900 600 
L 2900 125 
z
" transform="scale(0.015625)"/>
       <path id="SimHei-47" d="M 2850 75 
L 2425 75 
L 2350 425 
Q 2250 275 2037 175 
Q 1825 75 1575 75 
Q 1050 75 637 562 
Q 225 1050 225 2125 
Q 225 3300 600 3875 
Q 975 4450 1625 4450 
Q 2200 4450 2525 4025 
Q 2850 3600 2850 2925 
L 2300 2925 
Q 2300 3450 2125 3712 
Q 1950 3975 1625 3975 
Q 1225 3975 1025 3562 
Q 825 3150 825 2175 
Q 825 1250 1075 900 
Q 1325 550 1650 550 
Q 1975 550 2162 787 
Q 2350 1025 2350 1525 
L 2350 1800 
L 1575 1800 
L 1575 2275 
L 2850 2275 
L 2850 75 
z
" transform="scale(0.015625)"/>
       <path id="SimHei-42" d="M 2950 1400 
Q 2950 675 2550 400 
Q 2150 125 1525 125 
L 275 125 
L 275 4400 
L 1575 4400 
Q 2200 4400 2512 4075 
Q 2825 3750 2825 3300 
Q 2825 2850 2612 2637 
Q 2400 2425 2175 2350 
Q 2475 2275 2712 2037 
Q 2950 1800 2950 1400 
z
M 2250 3300 
Q 2250 3625 2062 3775 
Q 1875 3925 1600 3925 
L 850 3925 
L 850 2600 
L 1575 2600 
Q 1850 2600 2050 2762 
Q 2250 2925 2250 3300 
z
M 2350 1400 
Q 2350 1800 2087 1962 
Q 1825 2125 1500 2125 
L 850 2125 
L 850 600 
L 1425 600 
Q 1875 600 2112 775 
Q 2350 950 2350 1400 
z
" transform="scale(0.015625)"/>
       <path id="SimHei-4d" d="M 2925 125 
L 2425 125 
L 2425 3175 
L 2375 3175 
L 1775 125 
L 1375 125 
L 775 3175 
L 725 3175 
L 725 125 
L 225 125 
L 225 4400 
L 1000 4400 
L 1550 1575 
L 1600 1575 
L 2150 4400 
L 2925 4400 
L 2925 125 
z
" transform="scale(0.015625)"/>
       <path id="SimHei-5f" d="M 3150 -850 
L 0 -850 
L 0 -550 
L 3150 -550 
L 3150 -850 
z
" transform="scale(0.015625)"/>
       <path id="SimHei-73" d="M 2750 900 
Q 2750 500 2437 287 
Q 2125 75 1650 75 
Q 1050 75 725 312 
Q 400 550 400 1000 
L 900 1000 
Q 900 700 1112 600 
Q 1325 500 1625 500 
Q 1925 500 2075 612 
Q 2225 725 2225 900 
Q 2225 1025 2100 1150 
Q 1975 1275 1475 1350 
Q 900 1425 687 1637 
Q 475 1850 475 2200 
Q 475 2500 762 2737 
Q 1050 2975 1600 2975 
Q 2100 2975 2387 2750 
Q 2675 2525 2675 2150 
L 2175 2150 
Q 2175 2375 2012 2462 
Q 1850 2550 1600 2550 
Q 1275 2550 1137 2437 
Q 1000 2325 1000 2175 
Q 1000 2000 1125 1900 
Q 1250 1800 1650 1750 
Q 2300 1650 2525 1437 
Q 2750 1225 2750 900 
z
" transform="scale(0.015625)"/>
       <path id="SimHei-69" d="M 1800 3725 
L 1300 3725 
L 1300 4375 
L 1800 4375 
L 1800 3725 
z
M 1800 125 
L 1300 125 
L 1300 2925 
L 1800 2925 
L 1800 125 
z
" transform="scale(0.015625)"/>
       <path id="SimHei-6d" d="M 3050 125 
L 2550 125 
L 2550 2150 
Q 2550 2300 2500 2400 
Q 2450 2500 2300 2500 
Q 2125 2500 1975 2312 
Q 1825 2125 1825 1825 
L 1825 125 
L 1325 125 
L 1325 2150 
Q 1325 2300 1275 2400 
Q 1225 2500 1075 2500 
Q 900 2500 750 2312 
Q 600 2125 600 1825 
L 600 125 
L 100 125 
L 100 2925 
L 600 2925 
L 600 2550 
Q 725 2750 900 2862 
Q 1075 2975 1275 2975 
Q 1475 2975 1612 2862 
Q 1750 2750 1800 2550 
Q 1925 2750 2087 2862 
Q 2250 2975 2450 2975 
Q 2750 2975 2900 2812 
Q 3050 2650 3050 2350 
L 3050 125 
z
" transform="scale(0.015625)"/>
       <path id="SimHei-74" d="M 2750 200 
Q 2625 150 2462 112 
Q 2300 75 2025 75 
Q 1575 75 1300 325 
Q 1025 575 1025 1025 
L 1025 2525 
L 175 2525 
L 175 2925 
L 1025 2925 
L 1025 3900 
L 1525 3900 
L 1525 2925 
L 2550 2925 
L 2550 2525 
L 1525 2525 
L 1525 1000 
Q 1525 800 1625 662 
Q 1725 525 2000 525 
Q 2275 525 2450 575 
Q 2625 625 2750 700 
L 2750 200 
z
" transform="scale(0.015625)"/>
      </defs>
      <use xlink:href="#SimHei-4c"/>
      <use xlink:href="#SimHei-47" x="50"/>
      <use xlink:href="#SimHei-42" x="100"/>
      <use xlink:href="#SimHei-4d" x="150"/>
      <use xlink:href="#SimHei-5f" x="200"/>
      <use xlink:href="#SimHei-73" x="250"/>
      <use xlink:href="#SimHei-69" x="300"/>
      <use xlink:href="#SimHei-6d" x="350"/>
      <use xlink:href="#SimHei-75" x="400"/>
      <use xlink:href="#SimHei-6c" x="450"/>
      <use xlink:href="#SimHei-61" x="500"/>
      <use xlink:href="#SimHei-74" x="550"/>
      <use xlink:href="#SimHei-65" x="600"/>
     </g>
    </g>
   </g>
  </g>
  <g id="axes_2">
   <g id="patch_8">
    <path d="M 53.640391 350.228255 
L 530.859375 350.228255 
L 530.859375 222.554492 
L 53.640391 222.554492 
z
" style="fill: #ffffff"/>
   </g>
   <g id="matplotlib.axis_3">
    <g id="xtick_6">
     <g id="line2d_13">
      <g>
       <use xlink:href="#m109a38a62a" x="75.332163" y="350.228255" style="stroke: #000000; stroke-width: 0.8"/>
      </g>
     </g>
     <g id="text_15">
      <!-- 0 -->
      <g transform="translate(72.832163 364.103255) scale(0.1 -0.1)">
       <use xlink:href="#SimHei-30"/>
      </g>
     </g>
    </g>
    <g id="xtick_7">
     <g id="line2d_14">
      <g>
       <use xlink:href="#m109a38a62a" x="129.561593" y="350.228255" style="stroke: #000000; stroke-width: 0.8"/>
      </g>
     </g>
     <g id="text_16">
      <!-- 1 -->
      <g transform="translate(127.061593 364.103255) scale(0.1 -0.1)">
       <use xlink:href="#SimHei-31"/>
      </g>
     </g>
    </g>
    <g id="xtick_8">
     <g id="line2d_15">
      <g>
       <use xlink:href="#m109a38a62a" x="183.791023" y="350.228255" style="stroke: #000000; stroke-width: 0.8"/>
      </g>
     </g>
     <g id="text_17">
      <!-- 2 -->
      <g transform="translate(181.291023 364.103255) scale(0.1 -0.1)">
       <use xlink:href="#SimHei-32"/>
      </g>
     </g>
    </g>
    <g id="xtick_9">
     <g id="line2d_16">
      <g>
       <use xlink:href="#m109a38a62a" x="238.020453" y="350.228255" style="stroke: #000000; stroke-width: 0.8"/>
      </g>
     </g>
     <g id="text_18">
      <!-- 3 -->
      <g transform="translate(235.520453 364.103255) scale(0.1 -0.1)">
       <use xlink:href="#SimHei-33"/>
      </g>
     </g>
    </g>
    <g id="xtick_10">
     <g id="line2d_17">
      <g>
       <use xlink:href="#m109a38a62a" x="292.249883" y="350.228255" style="stroke: #000000; stroke-width: 0.8"/>
      </g>
     </g>
     <g id="text_19">
      <!-- 4 -->
      <g transform="translate(289.749883 364.103255) scale(0.1 -0.1)">
       <defs>
        <path id="SimHei-34" d="M 2000 1100 
L 75 1100 
L 75 1525 
L 2100 4450 
L 2475 4450 
L 2475 1525 
L 3075 1525 
L 3075 1100 
L 2475 1100 
L 2475 150 
L 2000 150 
L 2000 1100 
z
M 2000 1525 
L 2000 3500 
L 600 1525 
L 2000 1525 
z
" transform="scale(0.015625)"/>
       </defs>
       <use xlink:href="#SimHei-34"/>
      </g>
     </g>
    </g>
    <g id="xtick_11">
     <g id="line2d_18">
      <g>
       <use xlink:href="#m109a38a62a" x="346.479313" y="350.228255" style="stroke: #000000; stroke-width: 0.8"/>
      </g>
     </g>
     <g id="text_20">
      <!-- 5 -->
      <g transform="translate(343.979313 364.103255) scale(0.1 -0.1)">
       <use xlink:href="#SimHei-35"/>
      </g>
     </g>
    </g>
    <g id="xtick_12">
     <g id="line2d_19">
      <g>
       <use xlink:href="#m109a38a62a" x="400.708743" y="350.228255" style="stroke: #000000; stroke-width: 0.8"/>
      </g>
     </g>
     <g id="text_21">
      <!-- 6 -->
      <g transform="translate(398.208743 364.103255) scale(0.1 -0.1)">
       <use xlink:href="#SimHei-36"/>
      </g>
     </g>
    </g>
    <g id="xtick_13">
     <g id="line2d_20">
      <g>
       <use xlink:href="#m109a38a62a" x="454.938173" y="350.228255" style="stroke: #000000; stroke-width: 0.8"/>
      </g>
     </g>
     <g id="text_22">
      <!-- 7 -->
      <g transform="translate(452.438173 364.103255) scale(0.1 -0.1)">
       <defs>
        <path id="SimHei-37" d="M 850 150 
Q 1300 2050 2425 3925 
L 275 3925 
L 275 4375 
L 2950 4375 
L 2950 3950 
Q 1775 2050 1400 150 
L 850 150 
z
" transform="scale(0.015625)"/>
       </defs>
       <use xlink:href="#SimHei-37"/>
      </g>
     </g>
    </g>
    <g id="xtick_14">
     <g id="line2d_21">
      <g>
       <use xlink:href="#m109a38a62a" x="509.167603" y="350.228255" style="stroke: #000000; stroke-width: 0.8"/>
      </g>
     </g>
     <g id="text_23">
      <!-- 8 -->
      <g transform="translate(506.667603 364.103255) scale(0.1 -0.1)">
       <defs>
        <path id="SimHei-38" d="M 175 1375 
Q 175 1675 325 1962 
Q 475 2250 825 2425 
Q 525 2600 425 2812 
Q 325 3025 312 3300 
Q 300 3575 387 3775 
Q 475 3975 650 4150 
Q 825 4325 1037 4387 
Q 1250 4450 1500 4450 
Q 1750 4450 1950 4400 
Q 2150 4350 2375 4187 
Q 2600 4025 2700 3725 
Q 2800 3425 2687 3025 
Q 2575 2625 2100 2400 
Q 2525 2275 2700 2012 
Q 2875 1750 2875 1375 
Q 2875 1000 2762 775 
Q 2650 550 2512 400 
Q 2375 250 2137 162 
Q 1900 75 1537 75 
Q 1175 75 912 162 
Q 650 250 475 425 
Q 300 600 237 837 
Q 175 1075 175 1375 
z
M 687 1400 
Q 675 1100 787 875 
Q 900 650 1200 587 
Q 1500 525 1825 600 
Q 2150 675 2275 950 
Q 2400 1225 2362 1500 
Q 2325 1775 2050 1962 
Q 1775 2150 1450 2125 
Q 1125 2100 912 1900 
Q 700 1700 687 1400 
z
M 775 3350 
Q 775 3100 950 2875 
Q 1125 2650 1500 2650 
Q 1875 2650 2062 2875 
Q 2250 3100 2237 3412 
Q 2225 3725 2012 3875 
Q 1800 4025 1437 4000 
Q 1075 3975 925 3787 
Q 775 3600 775 3350 
z
" transform="scale(0.015625)"/>
       </defs>
       <use xlink:href="#SimHei-38"/>
      </g>
     </g>
    </g>
    <g id="text_24">
     <!-- 时间 -->
     <g transform="translate(282.249883 377.361068) scale(0.1 -0.1)">
      <use xlink:href="#SimHei-65f6"/>
      <use xlink:href="#SimHei-95f4" x="100"/>
     </g>
    </g>
   </g>
   <g id="matplotlib.axis_4">
    <g id="ytick_4">
     <g id="line2d_22">
      <g>
       <use xlink:href="#m00aab38aaf" x="53.640391" y="338.736899" style="stroke: #000000; stroke-width: 0.8"/>
      </g>
     </g>
     <g id="text_25">
      <!-- 1.8 -->
      <g transform="translate(31.640391 342.174399) scale(0.1 -0.1)">
       <defs>
        <path id="SimHei-2e" d="M 1075 125 
L 500 125 
L 500 675 
L 1075 675 
L 1075 125 
z
" transform="scale(0.015625)"/>
       </defs>
       <use xlink:href="#SimHei-31"/>
       <use xlink:href="#SimHei-2e" x="50"/>
       <use xlink:href="#SimHei-38" x="100"/>
      </g>
     </g>
    </g>
    <g id="ytick_5">
     <g id="line2d_23">
      <g>
       <use xlink:href="#m00aab38aaf" x="53.640391" y="315.926322" style="stroke: #000000; stroke-width: 0.8"/>
      </g>
     </g>
     <g id="text_26">
      <!-- 2.0 -->
      <g transform="translate(31.640391 319.363822) scale(0.1 -0.1)">
       <use xlink:href="#SimHei-32"/>
       <use xlink:href="#SimHei-2e" x="50"/>
       <use xlink:href="#SimHei-30" x="100"/>
      </g>
     </g>
    </g>
    <g id="ytick_6">
     <g id="line2d_24">
      <g>
       <use xlink:href="#m00aab38aaf" x="53.640391" y="293.115744" style="stroke: #000000; stroke-width: 0.8"/>
      </g>
     </g>
     <g id="text_27">
      <!-- 2.2 -->
      <g transform="translate(31.640391 296.553244) scale(0.1 -0.1)">
       <use xlink:href="#SimHei-32"/>
       <use xlink:href="#SimHei-2e" x="50"/>
       <use xlink:href="#SimHei-32" x="100"/>
      </g>
     </g>
    </g>
    <g id="ytick_7">
     <g id="line2d_25">
      <g>
       <use xlink:href="#m00aab38aaf" x="53.640391" y="270.305167" style="stroke: #000000; stroke-width: 0.8"/>
      </g>
     </g>
     <g id="text_28">
      <!-- 2.4 -->
      <g transform="translate(31.640391 273.742667) scale(0.1 -0.1)">
       <use xlink:href="#SimHei-32"/>
       <use xlink:href="#SimHei-2e" x="50"/>
       <use xlink:href="#SimHei-34" x="100"/>
      </g>
     </g>
    </g>
    <g id="ytick_8">
     <g id="line2d_26">
      <g>
       <use xlink:href="#m00aab38aaf" x="53.640391" y="247.494589" style="stroke: #000000; stroke-width: 0.8"/>
      </g>
     </g>
     <g id="text_29">
      <!-- 2.6 -->
      <g transform="translate(31.640391 250.932089) scale(0.1 -0.1)">
       <use xlink:href="#SimHei-32"/>
       <use xlink:href="#SimHei-2e" x="50"/>
       <use xlink:href="#SimHei-36" x="100"/>
      </g>
     </g>
    </g>
    <g id="ytick_9">
     <g id="line2d_27">
      <g>
       <use xlink:href="#m00aab38aaf" x="53.640391" y="224.684011" style="stroke: #000000; stroke-width: 0.8"/>
      </g>
     </g>
     <g id="text_30">
      <!-- 2.8 -->
      <g transform="translate(31.640391 228.121511) scale(0.1 -0.1)">
       <use xlink:href="#SimHei-32"/>
       <use xlink:href="#SimHei-2e" x="50"/>
       <use xlink:href="#SimHei-38" x="100"/>
      </g>
     </g>
    </g>
    <g id="text_31">
     <!-- revenue -->
     <g transform="translate(26.390391 303.891374) rotate(-90) scale(0.1 -0.1)">
      <use xlink:href="#SimHei-72"/>
      <use xlink:href="#SimHei-65" x="50"/>
      <use xlink:href="#SimHei-76" x="100"/>
      <use xlink:href="#SimHei-65" x="150"/>
      <use xlink:href="#SimHei-6e" x="200"/>
      <use xlink:href="#SimHei-75" x="250"/>
      <use xlink:href="#SimHei-65" x="300"/>
     </g>
    </g>
    <g id="text_32">
     <!-- 1e6 -->
     <g transform="translate(53.640391 219.554492) scale(0.1 -0.1)">
      <use xlink:href="#SimHei-31"/>
      <use xlink:href="#SimHei-65" x="50"/>
      <use xlink:href="#SimHei-36" x="100"/>
     </g>
    </g>
   </g>
   <g id="line2d_28">
    <path d="M 75.332163 250.328993 
L 129.561593 257.650808 
L 183.791023 284.491065 
L 238.020453 258.311175 
L 292.249883 263.890832 
L 346.479313 295.074602 
L 400.708743 272.847786 
L 454.938173 232.345514 
L 509.167603 228.357845 
" clip-path="url(#p30aba2e0d8)" style="fill: none; stroke: #ff0000; stroke-width: 1.5; stroke-linecap: square"/>
   </g>
   <g id="line2d_29">
    <path d="M 75.332163 282.244282 
L 129.561593 292.74439 
L 183.791023 289.043663 
L 238.020453 271.469205 
L 292.249883 289.043663 
L 346.479313 252.562208 
L 400.708743 289.043663 
L 454.938173 289.043663 
L 509.167603 344.424902 
" clip-path="url(#p30aba2e0d8)" style="fill: none; stroke-dasharray: 5.55,2.4; stroke-dashoffset: 0; stroke: #008000; stroke-width: 1.5"/>
   </g>
   <g id="patch_9">
    <path d="M 53.640391 350.228255 
L 53.640391 222.554492 
" style="fill: none; stroke: #000000; stroke-width: 0.8; stroke-linejoin: miter; stroke-linecap: square"/>
   </g>
   <g id="patch_10">
    <path d="M 530.859375 350.228255 
L 530.859375 222.554492 
" style="fill: none; stroke: #000000; stroke-width: 0.8; stroke-linejoin: miter; stroke-linecap: square"/>
   </g>
   <g id="patch_11">
    <path d="M 53.640391 350.228255 
L 530.859375 350.228255 
" style="fill: none; stroke: #000000; stroke-width: 0.8; stroke-linejoin: miter; stroke-linecap: square"/>
   </g>
   <g id="patch_12">
    <path d="M 53.640391 222.554492 
L 530.859375 222.554492 
" style="fill: none; stroke: #000000; stroke-width: 0.8; stroke-linejoin: miter; stroke-linecap: square"/>
   </g>
   <g id="text_33">
    <!-- '2019-10-14'至'2019-11-11'的预测情况 -->
    <g transform="translate(184.249883 216.554492) scale(0.12 -0.12)">
     <defs>
      <path id="SimHei-27" d="M 1700 4450 
Q 1625 4125 1600 3800 
L 1550 3150 
L 1175 3150 
L 1150 3950 
Q 1125 4200 1100 4450 
L 1700 4450 
z
" transform="scale(0.015625)"/>
      <path id="SimHei-39" d="M 800 75 
Q 1350 1000 1700 1750 
Q 1075 1650 662 1912 
Q 250 2175 162 2625 
Q 75 3075 175 3437 
Q 275 3800 487 4037 
Q 700 4275 1000 4375 
Q 1300 4475 1537 4475 
Q 1775 4475 2025 4375 
Q 2275 4275 2475 4075 
Q 2675 3875 2750 3662 
Q 2825 3450 2825 3112 
Q 2825 2775 2575 2250 
Q 2325 1725 1350 75 
L 800 75 
z
M 662 2875 
Q 700 2550 937 2337 
Q 1175 2125 1450 2150 
Q 1725 2175 1887 2300 
Q 2050 2425 2200 2725 
Q 2300 3100 2250 3362 
Q 2200 3625 1987 3800 
Q 1775 3975 1525 3975 
Q 1375 4000 1137 3900 
Q 900 3800 762 3500 
Q 625 3200 662 2875 
z
" transform="scale(0.015625)"/>
      <path id="SimHei-2d" d="M 2975 2125 
L 125 2125 
L 125 2525 
L 2975 2525 
L 2975 2125 
z
" transform="scale(0.015625)"/>
      <path id="SimHei-81f3" d="M 4250 3725 
Q 5275 2700 5575 2350 
Q 5350 2225 5175 2025 
Q 4950 2275 4750 2475 
Q 3925 2425 3475 2400 
L 3475 1450 
L 4275 1450 
Q 4800 1450 5250 1475 
L 5250 1000 
Q 4775 1025 4300 1025 
L 3475 1025 
L 3475 100 
L 4975 100 
Q 5550 100 5975 125 
L 5975 -350 
Q 5575 -325 4975 -325 
L 1325 -325 
Q 825 -325 450 -350 
L 450 125 
Q 850 100 1350 100 
L 2975 100 
L 2975 1025 
L 2025 1025 
Q 1550 1025 1150 1000 
L 1150 1475 
Q 1575 1450 2050 1450 
L 2975 1450 
L 2975 2375 
Q 2500 2350 1975 2300 
Q 1450 2250 1250 2175 
Q 1150 2425 1050 2650 
Q 1575 2800 2050 3350 
Q 2525 3900 2600 4275 
L 1700 4275 
Q 1150 4275 775 4250 
L 775 4725 
Q 1150 4700 1700 4700 
L 4700 4700 
Q 5225 4700 5650 4725 
L 5650 4250 
Q 5250 4275 4675 4275 
L 2800 4275 
Q 3000 4125 3225 3950 
Q 2900 3675 2537 3287 
Q 2175 2900 1950 2725 
Q 2700 2725 3300 2750 
Q 3900 2775 4475 2800 
Q 4250 3050 3900 3400 
Q 4075 3550 4250 3725 
z
" transform="scale(0.015625)"/>
      <path id="SimHei-9884" d="M 5200 4800 
Q 5575 4800 5950 4825 
L 5950 4400 
Q 5575 4425 5200 4425 
L 4500 4425 
Q 4425 4050 4350 3600 
L 5725 3600 
Q 5700 3225 5700 2800 
L 5700 1725 
Q 5700 1300 5725 850 
L 5250 850 
L 5250 3225 
L 3550 3225 
L 3550 800 
L 3075 800 
Q 3100 1375 3100 1725 
L 3100 2775 
Q 3100 3175 3075 3600 
L 3900 3600 
Q 4000 4150 4000 4425 
L 3725 4425 
Q 3300 4425 2850 4400 
L 2850 4825 
Q 3325 4800 3725 4800 
L 5200 4800 
z
M 2600 1775 
Q 2350 1825 2150 1825 
Q 2250 2250 2300 2450 
L 1750 2450 
L 1750 125 
Q 1725 -300 1425 -400 
Q 1125 -500 750 -500 
Q 700 -225 575 25 
Q 1125 -25 1212 37 
Q 1300 100 1300 350 
L 1300 2450 
L 1025 2450 
Q 700 2450 350 2425 
L 350 2850 
Q 700 2825 1000 2825 
L 2850 2825 
Q 2725 2325 2600 1775 
z
M 4725 2875 
Q 4625 2575 4600 2100 
Q 4575 1625 4462 1037 
Q 4350 450 3962 62 
Q 3575 -325 2925 -675 
Q 2700 -500 2475 -350 
Q 3075 -125 3437 200 
Q 3800 525 3950 937 
Q 4100 1350 4137 1850 
Q 4175 2350 4175 2925 
L 4725 2875 
z
M 1625 2900 
Q 1275 3275 800 3650 
Q 925 3775 1075 3950 
Q 1250 3825 1425 3675 
Q 1750 4150 1950 4375 
L 1400 4375 
Q 900 4375 450 4350 
L 450 4775 
Q 900 4750 1375 4750 
L 2575 4750 
L 2575 4375 
Q 2200 4100 1725 3400 
L 1950 3200 
Q 1750 3025 1625 2900 
z
M 4775 725 
Q 5725 0 6075 -325 
Q 5850 -500 5725 -650 
Q 5400 -325 5137 -87 
Q 4875 150 4525 350 
Q 4650 525 4775 725 
z
" transform="scale(0.015625)"/>
      <path id="SimHei-6d4b" d="M 4025 4725 
Q 4000 4475 4000 4000 
L 4000 2225 
Q 4000 1775 4025 1350 
L 3550 1350 
L 3550 4325 
L 2350 4325 
L 2350 1325 
L 1900 1325 
Q 1925 1775 1925 2225 
L 1925 4000 
Q 1925 4200 1900 4725 
L 4025 4725 
z
M 5900 5075 
Q 5875 4800 5875 4375 
L 5875 0 
Q 5875 -325 5650 -425 
Q 5425 -525 4975 -600 
Q 4925 -325 4775 -50 
Q 5125 -50 5262 -25 
Q 5400 0 5400 250 
L 5400 4375 
Q 5400 4775 5375 5075 
L 5900 5075 
z
M 3275 3725 
Q 3225 3400 3200 2325 
Q 3175 1250 2837 550 
Q 2500 -150 2075 -600 
Q 1850 -400 1600 -325 
Q 2200 250 2475 962 
Q 2750 1675 2762 2475 
Q 2775 3275 2725 3800 
Q 3000 3750 3275 3725 
z
M 4950 4275 
Q 4925 4000 4925 3575 
L 4925 1825 
Q 4925 1300 4950 850 
L 4450 850 
Q 4475 1150 4475 1825 
L 4475 3575 
Q 4475 4000 4450 4275 
L 4950 4275 
z
M 1700 1675 
Q 1375 1075 1112 487 
Q 850 -100 725 -400 
Q 500 -200 200 -25 
Q 475 300 762 850 
Q 1050 1400 1250 2000 
Q 1475 1825 1700 1675 
z
M 3400 1050 
Q 3800 650 4300 -125 
Q 4100 -225 3875 -450 
Q 3475 275 3025 750 
Q 3225 875 3400 1050 
z
M 600 3525 
Q 1125 3125 1500 2775 
Q 1300 2575 1150 2375 
Q 825 2775 300 3150 
Q 450 3300 600 3525 
z
M 1350 4000 
Q 950 4375 475 4675 
Q 625 4850 775 5050 
Q 1300 4700 1675 4375 
Q 1500 4250 1350 4000 
z
" transform="scale(0.015625)"/>
     </defs>
     <use xlink:href="#SimHei-27"/>
     <use xlink:href="#SimHei-32" x="50"/>
     <use xlink:href="#SimHei-30" x="100"/>
     <use xlink:href="#SimHei-31" x="150"/>
     <use xlink:href="#SimHei-39" x="200"/>
     <use xlink:href="#SimHei-2d" x="250"/>
     <use xlink:href="#SimHei-31" x="300"/>
     <use xlink:href="#SimHei-30" x="350"/>
     <use xlink:href="#SimHei-2d" x="400"/>
     <use xlink:href="#SimHei-31" x="450"/>
     <use xlink:href="#SimHei-34" x="500"/>
     <use xlink:href="#SimHei-27" x="550"/>
     <use xlink:href="#SimHei-81f3" x="600"/>
     <use xlink:href="#SimHei-27" x="700"/>
     <use xlink:href="#SimHei-32" x="750"/>
     <use xlink:href="#SimHei-30" x="800"/>
     <use xlink:href="#SimHei-31" x="850"/>
     <use xlink:href="#SimHei-39" x="900"/>
     <use xlink:href="#SimHei-2d" x="950"/>
     <use xlink:href="#SimHei-31" x="1000"/>
     <use xlink:href="#SimHei-31" x="1050"/>
     <use xlink:href="#SimHei-2d" x="1100"/>
     <use xlink:href="#SimHei-31" x="1150"/>
     <use xlink:href="#SimHei-31" x="1200"/>
     <use xlink:href="#SimHei-27" x="1250"/>
     <use xlink:href="#SimHei-7684" x="1300"/>
     <use xlink:href="#SimHei-9884" x="1400"/>
     <use xlink:href="#SimHei-6d4b" x="1500"/>
     <use xlink:href="#SimHei-60c5" x="1600"/>
     <use xlink:href="#SimHei-51b5" x="1700"/>
    </g>
   </g>
   <g id="legend_2">
    <g id="patch_13">
     <path d="M 60.640391 345.228255 
L 157.640391 345.228255 
Q 159.640391 345.228255 159.640391 343.228255 
L 159.640391 317.65013 
Q 159.640391 315.65013 157.640391 315.65013 
L 60.640391 315.65013 
Q 58.640391 315.65013 58.640391 317.65013 
L 58.640391 343.228255 
Q 58.640391 345.228255 60.640391 345.228255 
z
" style="fill: #ffffff; opacity: 0.8; stroke: #cccccc; stroke-linejoin: miter"/>
    </g>
    <g id="line2d_30">
     <path d="M 62.640391 323.15013 
L 72.640391 323.15013 
L 82.640391 323.15013 
" style="fill: none; stroke: #ff0000; stroke-width: 1.5; stroke-linecap: square"/>
    </g>
    <g id="text_34">
     <!-- real -->
     <g transform="translate(90.640391 326.65013) scale(0.1 -0.1)">
      <use xlink:href="#SimHei-72"/>
      <use xlink:href="#SimHei-65" x="50"/>
      <use xlink:href="#SimHei-61" x="100"/>
      <use xlink:href="#SimHei-6c" x="150"/>
     </g>
    </g>
    <g id="line2d_31">
     <path d="M 62.640391 336.40013 
L 72.640391 336.40013 
L 82.640391 336.40013 
" style="fill: none; stroke-dasharray: 5.55,2.4; stroke-dashoffset: 0; stroke: #008000; stroke-width: 1.5"/>
    </g>
    <g id="text_35">
     <!-- LGBM_simulate -->
     <g transform="translate(90.640391 339.90013) scale(0.1 -0.1)">
      <use xlink:href="#SimHei-4c"/>
      <use xlink:href="#SimHei-47" x="50"/>
      <use xlink:href="#SimHei-42" x="100"/>
      <use xlink:href="#SimHei-4d" x="150"/>
      <use xlink:href="#SimHei-5f" x="200"/>
      <use xlink:href="#SimHei-73" x="250"/>
      <use xlink:href="#SimHei-69" x="300"/>
      <use xlink:href="#SimHei-6d" x="350"/>
      <use xlink:href="#SimHei-75" x="400"/>
      <use xlink:href="#SimHei-6c" x="450"/>
      <use xlink:href="#SimHei-61" x="500"/>
      <use xlink:href="#SimHei-74" x="550"/>
      <use xlink:href="#SimHei-65" x="600"/>
     </g>
    </g>
   </g>
  </g>
 </g>
 <defs>
  <clipPath id="p58d6ab2d25">
   <rect x="53.640391" y="31.070703" width="477.218984" height="127.673763"/>
  </clipPath>
  <clipPath id="p30aba2e0d8">
   <rect x="53.640391" y="222.554492" width="477.218984" height="127.673763"/>
  </clipPath>
 </defs>
</svg>
