<?xml version="1.0" encoding="utf-8" standalone="no"?>
<!DOCTYPE svg PUBLIC "-//W3C//DTD SVG 1.1//EN"
  "http://www.w3.org/Graphics/SVG/1.1/DTD/svg11.dtd">
<svg xmlns:xlink="http://www.w3.org/1999/xlink" width="724.32pt" height="473.04pt" viewBox="0 0 724.32 473.04" xmlns="http://www.w3.org/2000/svg" version="1.1">
 <metadata>
  <rdf:RDF xmlns:dc="http://purl.org/dc/elements/1.1/" xmlns:cc="http://creativecommons.org/ns#" xmlns:rdf="http://www.w3.org/1999/02/22-rdf-syntax-ns#">
   <cc:Work>
    <dc:type rdf:resource="http://purl.org/dc/dcmitype/StillImage"/>
    <dc:date>2022-12-02T21:45:23.114426</dc:date>
    <dc:format>image/svg+xml</dc:format>
    <dc:creator>
     <cc:Agent>
      <dc:title>Matplotlib v3.6.0, https://matplotlib.org/</dc:title>
     </cc:Agent>
    </dc:creator>
   </cc:Work>
  </rdf:RDF>
 </metadata>
 <defs>
  <style type="text/css">*{stroke-linejoin: round; stroke-linecap: butt}</style>
 </defs>
 <g id="figure_1">
  <g id="patch_1">
   <path d="M 0 473.04 
L 724.32 473.04 
L 724.32 0 
L 0 0 
z
" style="fill: #ffffff"/>
  </g>
  <g id="axes_1">
   <g id="patch_2">
    <path d="M 63.692375 189.62748 
L 707.34375 189.62748 
L 707.34375 37.115367 
L 63.692375 37.115367 
z
" style="fill: #ffffff"/>
   </g>
   <g id="matplotlib.axis_1">
    <g id="xtick_1">
     <g id="line2d_1">
      <defs>
       <path id="m65308d070a" d="M 0 0 
L 0 3.5 
" style="stroke: #000000; stroke-width: 0.8"/>
      </defs>
      <g>
       <use xlink:href="#m65308d070a" x="92.949256" y="189.62748" style="stroke: #000000; stroke-width: 0.8"/>
      </g>
     </g>
     <g id="text_1">
      <!-- 0 -->
      <g transform="translate(90.449256 203.50248) scale(0.1 -0.1)">
       <defs>
        <path id="SimHei-30" d="M 225 2537 
Q 250 3200 412 3587 
Q 575 3975 875 4225 
Q 1175 4475 1612 4475 
Q 2050 4475 2375 4112 
Q 2700 3750 2800 3200 
Q 2900 2650 2862 1937 
Q 2825 1225 2612 775 
Q 2400 325 1975 150 
Q 1550 -25 1125 187 
Q 700 400 525 750 
Q 350 1100 275 1487 
Q 200 1875 225 2537 
z
M 750 2687 
Q 675 2000 800 1462 
Q 925 925 1212 700 
Q 1500 475 1800 612 
Q 2100 750 2237 1162 
Q 2375 1575 2375 2062 
Q 2375 2550 2337 2950 
Q 2300 3350 2112 3675 
Q 1925 4000 1612 4012 
Q 1300 4025 1062 3700 
Q 825 3375 750 2687 
z
" transform="scale(0.015625)"/>
       </defs>
       <use xlink:href="#SimHei-30"/>
      </g>
     </g>
    </g>
    <g id="xtick_2">
     <g id="line2d_2">
      <g>
       <use xlink:href="#m65308d070a" x="234.286844" y="189.62748" style="stroke: #000000; stroke-width: 0.8"/>
      </g>
     </g>
     <g id="text_2">
      <!-- 50 -->
      <g transform="translate(229.286844 203.50248) scale(0.1 -0.1)">
       <defs>
        <path id="SimHei-35" d="M 550 1325 
Q 725 650 1150 575 
Q 1575 500 1837 662 
Q 2100 825 2212 1087 
Q 2325 1350 2312 1675 
Q 2300 2000 2137 2225 
Q 1975 2450 1725 2525 
Q 1475 2600 1162 2525 
Q 850 2450 650 2175 
L 225 2225 
Q 275 2375 700 4375 
L 2675 4375 
L 2675 3925 
L 1075 3925 
Q 950 3250 825 2850 
Q 1200 3025 1525 3012 
Q 1850 3000 2150 2862 
Q 2450 2725 2587 2487 
Q 2725 2250 2787 2012 
Q 2850 1775 2837 1500 
Q 2825 1225 2725 937 
Q 2625 650 2425 462 
Q 2225 275 1937 162 
Q 1650 50 1275 75 
Q 900 100 562 350 
Q 225 600 100 1200 
L 550 1325 
z
" transform="scale(0.015625)"/>
       </defs>
       <use xlink:href="#SimHei-35"/>
       <use xlink:href="#SimHei-30" x="50"/>
      </g>
     </g>
    </g>
    <g id="xtick_3">
     <g id="line2d_3">
      <g>
       <use xlink:href="#m65308d070a" x="375.624431" y="189.62748" style="stroke: #000000; stroke-width: 0.8"/>
      </g>
     </g>
     <g id="text_3">
      <!-- 100 -->
      <g transform="translate(368.124431 203.50248) scale(0.1 -0.1)">
       <defs>
        <path id="SimHei-31" d="M 1400 3600 
Q 1075 3275 575 2975 
L 575 3450 
Q 1200 3875 1600 4450 
L 1900 4450 
L 1900 150 
L 1400 150 
L 1400 3600 
z
" transform="scale(0.015625)"/>
       </defs>
       <use xlink:href="#SimHei-31"/>
       <use xlink:href="#SimHei-30" x="50"/>
       <use xlink:href="#SimHei-30" x="100"/>
      </g>
     </g>
    </g>
    <g id="xtick_4">
     <g id="line2d_4">
      <g>
       <use xlink:href="#m65308d070a" x="516.962019" y="189.62748" style="stroke: #000000; stroke-width: 0.8"/>
      </g>
     </g>
     <g id="text_4">
      <!-- 150 -->
      <g transform="translate(509.462019 203.50248) scale(0.1 -0.1)">
       <use xlink:href="#SimHei-31"/>
       <use xlink:href="#SimHei-35" x="50"/>
       <use xlink:href="#SimHei-30" x="100"/>
      </g>
     </g>
    </g>
    <g id="xtick_5">
     <g id="line2d_5">
      <g>
       <use xlink:href="#m65308d070a" x="658.299607" y="189.62748" style="stroke: #000000; stroke-width: 0.8"/>
      </g>
     </g>
     <g id="text_5">
      <!-- 200 -->
      <g transform="translate(650.799607 203.50248) scale(0.1 -0.1)">
       <defs>
        <path id="SimHei-32" d="M 300 250 
Q 325 625 650 925 
Q 975 1225 1475 1862 
Q 1975 2500 2125 2850 
Q 2275 3200 2237 3450 
Q 2200 3700 2000 3862 
Q 1800 4025 1537 4000 
Q 1275 3975 1037 3800 
Q 800 3625 675 3275 
L 200 3350 
Q 400 3925 712 4187 
Q 1025 4450 1450 4475 
Q 1700 4500 1900 4462 
Q 2100 4425 2312 4287 
Q 2525 4150 2662 3875 
Q 2800 3600 2762 3212 
Q 2725 2825 2375 2287 
Q 2025 1750 1025 600 
L 2825 600 
L 2825 150 
L 300 150 
L 300 250 
z
" transform="scale(0.015625)"/>
       </defs>
       <use xlink:href="#SimHei-32"/>
       <use xlink:href="#SimHei-30" x="50"/>
       <use xlink:href="#SimHei-30" x="100"/>
      </g>
     </g>
    </g>
    <g id="text_6">
     <!-- 时间 -->
     <g transform="translate(375.518063 216.760293) scale(0.1 -0.1)">
      <defs>
       <path id="SimHei-65f6" d="M 2525 4575 
Q 2500 3675 2500 2400 
Q 2500 1125 2525 400 
L 2000 400 
L 2000 875 
L 1000 875 
L 1000 50 
L 475 50 
Q 500 1200 500 2350 
Q 500 3525 475 4575 
L 2525 4575 
z
M 4875 3825 
Q 4875 4575 4850 5225 
L 5400 5225 
Q 5375 4575 5375 3825 
Q 5750 3825 6175 3850 
L 6175 3375 
Q 5750 3400 5375 3400 
L 5375 50 
Q 5375 -325 5075 -425 
Q 4775 -525 4300 -575 
Q 4300 -275 4025 0 
Q 4500 -50 4687 -25 
Q 4875 0 4875 300 
L 4875 3400 
Q 3625 3400 2775 3375 
L 2775 3850 
Q 3575 3825 4875 3825 
z
M 2000 1300 
L 2000 2550 
L 1000 2550 
L 1000 1300 
L 2000 1300 
z
M 2000 2975 
L 2000 4150 
L 1000 4150 
L 1000 2975 
L 2000 2975 
z
M 3550 2725 
Q 3875 2200 4175 1600 
Q 3925 1525 3650 1375 
Q 3450 1975 3075 2500 
Q 3300 2600 3550 2725 
z
" transform="scale(0.015625)"/>
       <path id="SimHei-95f4" d="M 4450 3550 
Q 4425 3075 4425 2725 
L 4425 1400 
Q 4425 1075 4450 625 
L 1925 625 
Q 1950 1075 1950 1425 
L 1950 2725 
Q 1950 3075 1925 3550 
L 4450 3550 
z
M 5800 4875 
Q 5775 4400 5775 3925 
L 5775 250 
Q 5800 -325 5462 -450 
Q 5125 -575 4725 -625 
Q 4700 -325 4525 -25 
Q 5000 -50 5137 25 
Q 5275 100 5275 350 
L 5275 4450 
L 3775 4450 
Q 3175 4450 2650 4425 
L 2650 4900 
Q 3175 4875 3775 4875 
L 5800 4875 
z
M 550 -525 
Q 600 -25 600 525 
L 600 3150 
Q 600 3675 550 4025 
L 1125 4025 
Q 1100 3650 1100 3300 
L 1100 500 
Q 1100 0 1125 -525 
L 550 -525 
z
M 3950 1025 
L 3950 1950 
L 2425 1950 
L 2425 1025 
L 3950 1025 
z
M 3950 2350 
L 3950 3150 
L 2425 3150 
L 2425 2350 
L 3950 2350 
z
M 1525 5300 
Q 1750 5000 2225 4350 
Q 1950 4225 1700 4075 
Q 1450 4575 1075 5025 
Q 1350 5225 1525 5300 
z
" transform="scale(0.015625)"/>
      </defs>
      <use xlink:href="#SimHei-65f6"/>
      <use xlink:href="#SimHei-95f4" x="100"/>
     </g>
    </g>
   </g>
   <g id="matplotlib.axis_2">
    <g id="ytick_1">
     <g id="line2d_6">
      <defs>
       <path id="mcf7448cb13" d="M 0 0 
L -3.5 0 
" style="stroke: #000000; stroke-width: 0.8"/>
      </defs>
      <g>
       <use xlink:href="#mcf7448cb13" x="63.692375" y="163.563501" style="stroke: #000000; stroke-width: 0.8"/>
      </g>
     </g>
     <g id="text_7">
      <!-- -1 -->
      <g transform="translate(46.692375 167.001001) scale(0.1 -0.1)">
       <defs>
        <path id="SimHei-2d" d="M 2975 2125 
L 125 2125 
L 125 2525 
L 2975 2525 
L 2975 2125 
z
" transform="scale(0.015625)"/>
       </defs>
       <use xlink:href="#SimHei-2d"/>
       <use xlink:href="#SimHei-31" x="50"/>
      </g>
     </g>
    </g>
    <g id="ytick_2">
     <g id="line2d_7">
      <g>
       <use xlink:href="#mcf7448cb13" x="63.692375" y="132.16707" style="stroke: #000000; stroke-width: 0.8"/>
      </g>
     </g>
     <g id="text_8">
      <!-- 0 -->
      <g transform="translate(51.692375 135.60457) scale(0.1 -0.1)">
       <use xlink:href="#SimHei-30"/>
      </g>
     </g>
    </g>
    <g id="ytick_3">
     <g id="line2d_8">
      <g>
       <use xlink:href="#mcf7448cb13" x="63.692375" y="100.770638" style="stroke: #000000; stroke-width: 0.8"/>
      </g>
     </g>
     <g id="text_9">
      <!-- 1 -->
      <g transform="translate(51.692375 104.208138) scale(0.1 -0.1)">
       <use xlink:href="#SimHei-31"/>
      </g>
     </g>
    </g>
    <g id="ytick_4">
     <g id="line2d_9">
      <g>
       <use xlink:href="#mcf7448cb13" x="63.692375" y="69.374206" style="stroke: #000000; stroke-width: 0.8"/>
      </g>
     </g>
     <g id="text_10">
      <!-- 2 -->
      <g transform="translate(51.692375 72.811706) scale(0.1 -0.1)">
       <use xlink:href="#SimHei-32"/>
      </g>
     </g>
    </g>
    <g id="ytick_5">
     <g id="line2d_10">
      <g>
       <use xlink:href="#mcf7448cb13" x="63.692375" y="37.977774" style="stroke: #000000; stroke-width: 0.8"/>
      </g>
     </g>
     <g id="text_11">
      <!-- 3 -->
      <g transform="translate(51.692375 41.415274) scale(0.1 -0.1)">
       <defs>
        <path id="SimHei-33" d="M 250 1225 
L 700 1300 
Q 800 975 1025 762 
Q 1250 550 1587 562 
Q 1925 575 2125 837 
Q 2325 1100 2300 1437 
Q 2275 1775 2037 1962 
Q 1800 2150 1275 2225 
L 1275 2550 
Q 1800 2600 2037 2825 
Q 2275 3050 2250 3412 
Q 2225 3775 1925 3937 
Q 1625 4100 1287 3975 
Q 950 3850 750 3275 
L 300 3350 
Q 450 3800 712 4100 
Q 975 4400 1425 4450 
Q 1875 4500 2212 4337 
Q 2550 4175 2687 3837 
Q 2825 3500 2725 3100 
Q 2625 2700 2150 2400 
Q 2500 2250 2687 1950 
Q 2875 1650 2812 1162 
Q 2750 675 2375 375 
Q 2000 75 1525 87 
Q 1050 100 700 387 
Q 350 675 250 1225 
z
" transform="scale(0.015625)"/>
       </defs>
       <use xlink:href="#SimHei-33"/>
      </g>
     </g>
    </g>
    <g id="text_12">
     <!-- revenue -->
     <g transform="translate(41.442375 130.871424) rotate(-90) scale(0.1 -0.1)">
      <defs>
       <path id="SimHei-72" d="M 2500 2425 
Q 2025 2500 1700 2287 
Q 1375 2075 1150 1550 
L 1150 125 
L 650 125 
L 650 2925 
L 1150 2925 
L 1150 2200 
Q 1375 2600 1712 2787 
Q 2050 2975 2500 2975 
L 2500 2425 
z
" transform="scale(0.015625)"/>
       <path id="SimHei-65" d="M 2850 1075 
Q 2800 625 2450 350 
Q 2100 75 1625 75 
Q 1025 75 637 462 
Q 250 850 250 1525 
Q 250 2200 637 2587 
Q 1025 2975 1625 2975 
Q 2150 2975 2487 2637 
Q 2825 2300 2825 1525 
L 800 1525 
Q 800 975 1037 750 
Q 1275 525 1625 525 
Q 1900 525 2075 662 
Q 2250 800 2300 1075 
L 2850 1075 
z
M 2250 1925 
Q 2200 2275 2025 2412 
Q 1850 2550 1575 2550 
Q 1325 2550 1125 2412 
Q 925 2275 825 1925 
L 2250 1925 
z
" transform="scale(0.015625)"/>
       <path id="SimHei-76" d="M 2875 2925 
L 1825 75 
L 1275 75 
L 225 2925 
L 750 2925 
L 1525 750 
L 1575 750 
L 2350 2925 
L 2875 2925 
z
" transform="scale(0.015625)"/>
       <path id="SimHei-6e" d="M 2800 125 
L 2300 125 
L 2300 1925 
Q 2300 2225 2150 2400 
Q 2000 2575 1750 2575 
Q 1425 2575 1137 2237 
Q 850 1900 850 1400 
L 850 125 
L 350 125 
L 350 2925 
L 850 2925 
L 850 2400 
Q 1050 2675 1287 2825 
Q 1525 2975 1900 2975 
Q 2350 2975 2575 2725 
Q 2800 2475 2800 2100 
L 2800 125 
z
" transform="scale(0.015625)"/>
       <path id="SimHei-75" d="M 2800 125 
L 2300 125 
L 2300 650 
Q 2100 375 1862 225 
Q 1625 75 1250 75 
Q 800 75 575 325 
Q 350 575 350 950 
L 350 2925 
L 850 2925 
L 850 1125 
Q 850 825 1000 650 
Q 1150 475 1400 475 
Q 1725 475 2012 812 
Q 2300 1150 2300 1650 
L 2300 2925 
L 2800 2925 
L 2800 125 
z
" transform="scale(0.015625)"/>
      </defs>
      <use xlink:href="#SimHei-72"/>
      <use xlink:href="#SimHei-65" x="50"/>
      <use xlink:href="#SimHei-76" x="100"/>
      <use xlink:href="#SimHei-65" x="150"/>
      <use xlink:href="#SimHei-6e" x="200"/>
      <use xlink:href="#SimHei-75" x="250"/>
      <use xlink:href="#SimHei-65" x="300"/>
     </g>
    </g>
   </g>
   <g id="line2d_11">
    <path d="M 92.949256 91.20351 
L 95.776007 98.677744 
L 98.602759 100.298747 
L 101.429511 85.89325 
L 104.256263 114.862433 
L 107.083014 99.308525 
L 109.909766 116.815487 
L 112.736518 103.957099 
L 115.56327 123.801604 
L 118.390021 135.824371 
L 121.216773 134.356944 
L 124.043525 132.74202 
L 126.870277 126.428428 
L 129.697029 145.979551 
L 132.52378 145.865889 
L 135.350532 142.418749 
L 138.177284 141.665152 
L 141.004036 152.649655 
L 143.830787 119.784616 
L 146.657539 162.983603 
L 149.484291 162.09137 
L 152.311043 160.960315 
L 155.137794 173.179281 
L 157.964546 172.736937 
L 160.791298 173.154381 
L 163.61805 128.070303 
L 166.444801 167.992497 
L 172.098305 180.278328 
L 174.925057 179.114756 
L 177.751808 168.328577 
L 180.57856 175.067156 
L 183.405312 162.755912 
L 186.232064 162.098474 
L 189.058815 157.630573 
L 191.885567 155.397172 
L 194.712319 146.988521 
L 197.539071 146.950951 
L 200.365822 143.835058 
L 203.192574 151.103059 
L 206.019326 123.526384 
L 208.846078 116.849981 
L 211.672829 113.468754 
L 214.499581 115.913807 
L 217.326333 128.956238 
L 220.153085 114.117331 
L 222.979836 106.509955 
L 225.806588 113.258934 
L 228.63334 95.213028 
L 231.460092 81.518798 
L 234.286844 88.050413 
L 237.113595 72.373322 
L 239.940347 81.961509 
L 242.767099 87.066269 
L 245.593851 91.827993 
L 248.420602 107.631635 
L 251.247354 114.204995 
L 254.074106 51.434087 
L 256.900858 88.011744 
L 259.727609 122.499909 
L 262.554361 119.370614 
L 265.381113 116.445866 
L 268.207865 108.066437 
L 271.034616 132.500415 
L 273.861368 126.475519 
L 276.68812 127.944484 
L 279.514872 147.53574 
L 282.341623 147.29516 
L 285.168375 155.103496 
L 287.995127 161.253625 
L 290.821879 152.611792 
L 293.64863 152.657418 
L 296.475382 160.547851 
L 299.302134 126.316744 
L 302.128886 166.97818 
L 304.955637 112.788832 
L 307.782389 176.476434 
L 310.609141 173.527957 
L 313.435893 171.844411 
L 316.262644 175.924968 
L 319.089396 175.596432 
L 321.916148 179.442487 
L 324.7429 166.693512 
L 327.569651 171.460069 
L 330.396403 162.715193 
L 333.223155 160.198369 
L 336.049907 154.42936 
L 338.876659 156.017772 
L 341.70341 148.264217 
L 344.530162 143.978014 
L 347.356914 151.821576 
L 350.183666 125.665164 
L 353.010417 109.568431 
L 355.837169 124.261013 
L 358.663921 123.146948 
L 361.490673 129.336039 
L 364.317424 101.074974 
L 367.144176 108.623762 
L 369.970928 80.261192 
L 372.79768 111.8862 
L 375.624431 98.65819 
L 378.451183 99.507214 
L 381.277935 62.522291 
L 384.104687 89.053891 
L 386.931438 67.089134 
L 389.75819 75.851587 
L 392.584942 89.467674 
L 395.411694 112.909525 
L 398.238445 106.81132 
L 401.065197 44.047736 
L 403.891949 75.600314 
L 406.718701 114.327445 
L 409.545452 115.449492 
L 412.372204 127.942067 
L 415.198956 130.395542 
L 418.025708 125.408472 
L 420.852459 131.939648 
L 423.679211 139.455845 
L 426.505963 137.367671 
L 429.332715 146.844759 
L 432.159466 136.333287 
L 434.986218 159.142601 
L 437.81297 151.201781 
L 440.639722 106.409036 
L 443.466474 162.505226 
L 446.293225 170.489694 
L 449.119977 177.024531 
L 451.946729 177.967516 
L 454.773481 173.146765 
L 457.600232 174.319857 
L 460.426984 97.916457 
L 463.253736 172.467356 
L 466.080488 172.223773 
L 468.907239 171.639278 
L 471.733991 169.065769 
L 474.560743 165.796886 
L 477.387495 171.266946 
L 480.214246 162.746904 
L 483.040998 162.14117 
L 485.86775 147.231957 
L 488.694502 139.854615 
L 491.521253 123.935259 
L 494.348005 145.292379 
L 497.174757 149.832637 
L 500.001509 138.696389 
L 502.82826 121.667291 
L 505.655012 118.019339 
L 508.481764 121.774435 
L 511.308516 115.196755 
L 514.135267 97.854646 
L 516.962019 110.589559 
L 519.788771 88.622605 
L 522.615523 95.125804 
L 525.442274 82.700679 
L 528.269026 90.563282 
L 533.92253 99.764271 
L 536.749281 95.624247 
L 539.576033 117.993267 
L 542.402785 104.504171 
L 545.229537 103.721792 
L 548.056289 71.263798 
L 550.88304 91.533951 
L 553.709792 99.473598 
L 556.536544 99.971749 
L 559.363296 126.122302 
L 562.190047 105.69916 
L 565.016799 126.414367 
L 567.843551 120.531695 
L 570.670303 138.596862 
L 573.497054 125.388186 
L 576.323806 147.167949 
L 579.150558 149.596158 
L 581.97731 161.400609 
L 584.804061 157.209906 
L 587.630813 159.093093 
L 590.457565 160.216751 
L 593.284317 171.87041 
L 596.111068 111.011325 
L 598.93782 173.097184 
L 601.764572 168.7365 
L 604.591324 171.993519 
L 607.418075 179.445416 
L 610.244827 180.430585 
L 613.071579 172.550112 
L 615.898331 182.695112 
L 618.725082 179.727594 
L 621.551834 175.682777 
L 624.378586 170.934309 
L 627.205338 170.643709 
L 630.032089 165.484828 
L 635.685593 146.286116 
L 638.512345 131.245372 
L 641.339096 148.7932 
L 644.165848 150.829377 
L 646.9926 127.409496 
L 649.819352 119.6514 
L 652.646104 114.080054 
L 655.472855 99.078857 
L 658.299607 101.899756 
L 661.126359 112.240589 
L 663.953111 102.154178 
L 666.779862 104.30387 
L 669.606614 116.318142 
L 672.433366 107.754745 
L 675.260118 92.150304 
L 678.086869 90.613962 
L 678.086869 90.613962 
" clip-path="url(#pefbb32b456)" style="fill: none; stroke: #ff0000; stroke-width: 1.5; stroke-linecap: square"/>
   </g>
   <g id="line2d_12">
    <path d="M 92.949256 91.709905 
L 95.776007 101.51633 
L 98.602759 97.689161 
L 101.429511 83.691681 
L 104.256263 111.993997 
L 107.083014 96.710137 
L 109.909766 115.194383 
L 112.736518 104.076744 
L 115.56327 121.569917 
L 118.390021 134.408269 
L 121.216773 135.694007 
L 124.043525 131.383235 
L 126.870277 127.680417 
L 129.697029 143.666368 
L 132.52378 143.962381 
L 135.350532 143.155626 
L 138.177284 142.797526 
L 141.004036 150.843197 
L 143.830787 145.167613 
L 146.657539 160.615363 
L 149.484291 160.070782 
L 152.311043 159.180698 
L 155.137794 170.303445 
L 157.964546 171.063706 
L 160.791298 170.475171 
L 163.61805 167.948885 
L 166.444801 164.651524 
L 169.271553 170.911918 
L 172.098305 176.477581 
L 174.925057 175.511691 
L 177.751808 166.790394 
L 180.57856 171.823889 
L 183.405312 162.424771 
L 186.232064 159.824733 
L 189.058815 155.085231 
L 191.885567 153.494965 
L 194.712319 146.879735 
L 197.539071 145.433699 
L 200.365822 143.359021 
L 203.192574 149.760266 
L 206.019326 125.71971 
L 208.846078 119.221037 
L 211.672829 110.593184 
L 214.499581 113.057964 
L 217.326333 126.594261 
L 220.153085 116.622748 
L 222.979836 104.674595 
L 225.806588 108.332658 
L 228.63334 92.338402 
L 231.460092 79.449751 
L 234.286844 85.196865 
L 237.113595 75.873345 
L 239.940347 82.931619 
L 242.767099 86.300443 
L 245.593851 95.360471 
L 248.420602 105.917518 
L 251.247354 112.955546 
L 254.074106 86.073938 
L 256.900858 85.452872 
L 259.727609 120.272321 
L 262.554361 118.977602 
L 265.381113 115.077475 
L 268.207865 106.342236 
L 271.034616 131.048496 
L 273.861368 128.038386 
L 276.68812 128.295373 
L 279.514872 150.394065 
L 282.341623 147.389137 
L 285.168375 154.45077 
L 287.995127 160.405389 
L 290.821879 150.951112 
L 293.64863 151.08105 
L 296.475382 157.049818 
L 299.302134 168.407996 
L 302.128886 164.965687 
L 304.955637 168.89246 
L 307.782389 173.553551 
L 310.609141 169.8096 
L 313.435893 168.420893 
L 316.262644 173.923282 
L 319.089396 173.325065 
L 321.916148 176.013669 
L 324.7429 164.705267 
L 327.569651 169.583708 
L 330.396403 159.46929 
L 333.223155 158.139832 
L 336.049907 151.154889 
L 338.876659 154.207065 
L 341.70341 149.544873 
L 344.530162 142.932116 
L 347.356914 151.607777 
L 350.183666 124.696427 
L 353.010417 113.968067 
L 355.837169 122.885953 
L 358.663921 124.402583 
L 361.490673 127.63334 
L 364.317424 102.552986 
L 367.144176 106.651086 
L 369.970928 77.784221 
L 372.79768 109.11505 
L 375.624431 96.64434 
L 378.451183 99.795643 
L 381.277935 65.763325 
L 384.104687 91.884491 
L 386.931438 70.975771 
L 389.75819 78.500381 
L 392.584942 91.035584 
L 395.411694 110.015904 
L 398.238445 104.348373 
L 401.065197 84.853663 
L 403.891949 116.759753 
L 406.718701 113.047385 
L 409.545452 116.032847 
L 412.372204 127.554441 
L 415.198956 129.928819 
L 418.025708 123.274644 
L 420.852459 131.881023 
L 423.679211 138.563641 
L 426.505963 138.414894 
L 429.332715 144.47509 
L 432.159466 133.336495 
L 434.986218 156.764141 
L 437.81297 152.105422 
L 440.639722 162.375833 
L 443.466474 160.150982 
L 446.293225 167.427053 
L 449.119977 175.661938 
L 451.946729 175.28059 
L 454.773481 171.257376 
L 457.600232 170.734385 
L 460.426984 167.928071 
L 463.253736 170.23018 
L 466.080488 169.303935 
L 468.907239 170.313362 
L 474.560743 163.195689 
L 477.387495 171.415753 
L 480.214246 159.480556 
L 483.040998 161.830023 
L 485.86775 147.453961 
L 488.694502 137.318328 
L 491.521253 125.320953 
L 494.348005 142.980265 
L 497.174757 151.69372 
L 500.001509 135.977083 
L 502.82826 122.574243 
L 505.655012 115.494244 
L 508.481764 120.041911 
L 511.308516 113.183003 
L 514.135267 102.972253 
L 516.962019 108.161629 
L 519.788771 88.397378 
L 522.615523 93.414806 
L 525.442274 85.30108 
L 528.269026 89.808678 
L 531.095778 97.940094 
L 533.92253 96.950416 
L 536.749281 90.182673 
L 539.576033 115.35798 
L 542.402785 105.275096 
L 545.229537 101.407068 
L 548.056289 67.644592 
L 550.88304 103.550754 
L 553.709792 98.00547 
L 556.536544 100.570048 
L 559.363296 123.727633 
L 562.190047 104.465107 
L 565.016799 124.450549 
L 567.843551 121.186986 
L 570.670303 136.375482 
L 573.497054 125.167941 
L 576.323806 144.279232 
L 579.150558 147.446083 
L 581.97731 159.940895 
L 584.804061 154.937488 
L 587.630813 156.000697 
L 590.457565 156.314399 
L 593.284317 169.050135 
L 596.111068 166.881429 
L 598.93782 169.787294 
L 601.764572 166.102421 
L 604.591324 168.756524 
L 607.418075 175.843098 
L 610.244827 177.064285 
L 613.071579 169.737911 
L 615.898331 179.09444 
L 618.725082 176.429239 
L 621.551834 172.849469 
L 624.378586 168.119005 
L 627.205338 168.306014 
L 630.032089 163.590428 
L 632.858841 153.064858 
L 635.685593 143.980918 
L 638.512345 132.464455 
L 641.339096 146.242662 
L 644.165848 150.683412 
L 646.9926 124.480191 
L 649.819352 119.263454 
L 652.646104 111.031539 
L 655.472855 104.498313 
L 658.299607 102.198776 
L 661.126359 115.677817 
L 663.953111 106.470631 
L 666.779862 111.255952 
L 669.606614 114.362912 
L 672.433366 107.376449 
L 675.260118 94.643467 
L 678.086869 102.177804 
L 678.086869 102.177804 
" clip-path="url(#pefbb32b456)" style="fill: none; stroke-dasharray: 5.55,2.4; stroke-dashoffset: 0; stroke: #008000; stroke-width: 1.5"/>
   </g>
   <g id="patch_3">
    <path d="M 63.692375 189.62748 
L 63.692375 37.115367 
" style="fill: none; stroke: #000000; stroke-width: 0.8; stroke-linejoin: miter; stroke-linecap: square"/>
   </g>
   <g id="patch_4">
    <path d="M 707.34375 189.62748 
L 707.34375 37.115367 
" style="fill: none; stroke: #000000; stroke-width: 0.8; stroke-linejoin: miter; stroke-linecap: square"/>
   </g>
   <g id="patch_5">
    <path d="M 63.692375 189.62748 
L 707.34375 189.62748 
" style="fill: none; stroke: #000000; stroke-width: 0.8; stroke-linejoin: miter; stroke-linecap: square"/>
   </g>
   <g id="patch_6">
    <path d="M 63.692375 37.115367 
L 707.34375 37.115367 
" style="fill: none; stroke: #000000; stroke-width: 0.8; stroke-linejoin: miter; stroke-linecap: square"/>
   </g>
   <g id="text_13">
    <!-- 全部时间上的拟合情况 -->
    <g transform="translate(325.518063 31.115367) scale(0.12 -0.12)">
     <defs>
      <path id="SimHei-5168" d="M 3475 4825 
Q 4350 3425 6125 3025 
Q 5900 2750 5825 2450 
Q 5325 2650 4975 2875 
L 4975 2475 
Q 4700 2500 4100 2500 
L 3500 2500 
L 3500 1500 
L 4450 1500 
Q 4975 1500 5300 1525 
L 5300 1075 
Q 4975 1100 4450 1100 
L 3500 1100 
L 3500 -25 
L 4475 -25 
Q 5225 -25 5700 25 
L 5700 -500 
Q 5250 -425 4525 -425 
L 1775 -425 
Q 1025 -425 650 -450 
L 650 0 
Q 1025 -25 1775 -25 
L 3000 -25 
L 3000 1100 
L 2300 1100 
Q 1450 1100 1175 1075 
L 1175 1525 
Q 1450 1500 2275 1500 
L 3000 1500 
L 3000 2500 
L 2500 2500 
Q 1725 2500 1500 2475 
L 1500 2875 
Q 1275 2700 650 2350 
Q 500 2650 300 2875 
Q 900 3025 1700 3625 
Q 2500 4225 2975 5200 
Q 3275 5075 3600 4950 
L 3475 4825 
z
M 1650 2950 
Q 1950 2925 2525 2925 
L 4025 2925 
Q 4525 2925 4800 2950 
Q 3725 3500 3200 4550 
Q 2525 3525 1650 2950 
z
" transform="scale(0.015625)"/>
      <path id="SimHei-90e8" d="M 5300 2650 
Q 5750 2200 5962 1812 
Q 6175 1425 6150 1025 
Q 6125 625 5812 412 
Q 5500 200 4875 125 
Q 4825 400 4650 725 
Q 5250 725 5437 862 
Q 5625 1000 5612 1225 
Q 5600 1450 5350 1850 
Q 5100 2250 4775 2575 
Q 4975 3025 5300 4300 
L 4400 4300 
L 4400 -625 
L 3900 -625 
Q 3925 -100 3925 575 
L 3925 3625 
Q 3925 4175 3875 4725 
L 5975 4725 
Q 5575 3425 5300 2650 
z
M 3225 1775 
Q 3200 1200 3200 625 
Q 3200 50 3225 -575 
L 2725 -575 
L 2725 -75 
L 1375 -75 
L 1375 -575 
L 875 -575 
Q 900 -50 900 525 
Q 900 1125 875 1775 
L 3225 1775 
z
M 1925 5275 
Q 2325 4775 2450 4550 
Q 2300 4475 2175 4400 
Q 3225 4400 3500 4425 
L 3500 3950 
Q 3325 3950 2825 3975 
L 3250 3775 
Q 3075 3500 2750 2800 
Q 3350 2800 3675 2825 
L 3675 2350 
Q 3350 2375 3025 2375 
L 1150 2375 
Q 700 2375 400 2350 
L 400 2825 
Q 575 2800 1350 2800 
Q 1175 3225 900 3675 
Q 1100 3775 1325 3900 
Q 1575 3550 1850 3025 
Q 1600 2900 1475 2800 
L 2275 2800 
Q 2600 3575 2675 3975 
L 2075 3975 
Q 925 3975 575 3950 
L 575 4425 
Q 875 4400 1925 4400 
Q 1725 4800 1525 5025 
Q 1750 5150 1925 5275 
z
M 2725 325 
L 2725 1375 
L 1375 1375 
L 1375 325 
L 2725 325 
z
" transform="scale(0.015625)"/>
      <path id="SimHei-4e0a" d="M 3250 5075 
Q 3225 4650 3225 4275 
L 3225 3225 
L 4650 3225 
Q 5150 3225 5600 3250 
L 5600 2700 
Q 5100 2725 4600 2725 
L 3225 2725 
L 3225 200 
L 5200 200 
Q 5575 200 6075 225 
L 6075 -300 
Q 5600 -275 5200 -275 
L 1250 -275 
Q 850 -275 350 -300 
L 350 225 
Q 825 200 1250 200 
L 2700 200 
L 2700 4250 
Q 2700 4625 2675 5075 
L 3250 5075 
z
" transform="scale(0.015625)"/>
      <path id="SimHei-7684" d="M 2100 4975 
Q 1975 4750 1750 3950 
L 2875 3950 
Q 2850 3525 2850 2875 
L 2850 675 
Q 2850 300 2875 -400 
L 2375 -400 
L 2375 100 
L 1100 100 
L 1100 -450 
L 600 -450 
Q 625 350 625 550 
L 625 2850 
Q 625 3525 600 3950 
L 1325 3950 
Q 1450 4525 1525 5150 
Q 1875 5025 2100 4975 
z
M 5825 3075 
Q 5800 1550 5700 175 
Q 5650 -275 5225 -425 
Q 4800 -575 4275 -625 
Q 4250 -350 4050 -50 
Q 4550 -75 4837 -25 
Q 5125 25 5200 200 
Q 5275 375 5312 1225 
Q 5350 2075 5375 3600 
L 3925 3600 
Q 3725 3125 3350 2475 
Q 3175 2650 2925 2750 
Q 3150 3050 3350 3475 
Q 3550 3900 3700 4400 
Q 3850 4900 3875 5175 
Q 4225 5025 4475 4950 
Q 4350 4750 4262 4512 
Q 4175 4275 4075 4050 
L 5850 4050 
Q 5825 3525 5825 3075 
z
M 2375 525 
L 2375 1850 
L 1100 1850 
L 1100 525 
L 2375 525 
z
M 2375 2275 
L 2375 3525 
L 1100 3525 
L 1100 2275 
L 2375 2275 
z
M 4350 2050 
Q 4500 1750 4700 1275 
Q 4525 1200 4225 1025 
Q 4050 1500 3900 1837 
Q 3750 2175 3600 2400 
Q 3775 2500 4050 2650 
L 4350 2050 
z
" transform="scale(0.015625)"/>
      <path id="SimHei-62df" d="M 1675 125 
Q 1675 -175 1500 -275 
Q 1325 -375 800 -500 
Q 750 -225 575 0 
Q 1225 25 1225 275 
L 1225 1875 
Q 700 1625 475 1500 
Q 375 1800 250 1975 
Q 525 2050 1225 2325 
L 1225 3550 
Q 725 3550 350 3525 
L 350 4000 
Q 700 3950 1225 3950 
Q 1225 4625 1200 5225 
L 1725 5225 
Q 1675 4550 1675 3950 
Q 2025 3950 2325 3975 
L 2325 3525 
Q 1975 3550 1675 3550 
L 1675 2475 
Q 2150 2675 2300 2800 
Q 2300 2550 2325 2325 
Q 2125 2250 1675 2050 
L 1675 125 
z
M 4950 5050 
Q 5275 5025 5500 5000 
Q 5425 4650 5450 3337 
Q 5475 2025 5250 1275 
Q 5850 550 6200 -50 
Q 5975 -225 5775 -400 
Q 5525 100 5050 800 
Q 4800 450 4437 112 
Q 4075 -225 3325 -650 
Q 3175 -450 2925 -250 
Q 3425 -25 3900 325 
Q 4375 675 4612 1050 
Q 4850 1425 4925 2150 
Q 5000 2875 4950 5050 
z
M 2500 700 
Q 2675 875 2675 1200 
L 2675 3475 
Q 2675 3925 2650 4400 
L 3175 4400 
Q 3125 3975 3125 3500 
L 3125 1175 
Q 3775 1850 4050 2200 
Q 4150 1925 4300 1725 
Q 4025 1500 2900 300 
L 2500 700 
z
M 3800 5100 
Q 4375 4025 4575 3550 
Q 4250 3400 4100 3300 
Q 3850 3875 3375 4875 
Q 3575 4950 3800 5100 
z
" transform="scale(0.015625)"/>
      <path id="SimHei-5408" d="M 5050 1800 
Q 5025 1550 5025 650 
Q 5025 -250 5050 -525 
L 4525 -525 
L 4525 -50 
L 1750 -50 
L 1750 -600 
L 1250 -600 
Q 1275 -300 1275 550 
Q 1275 1425 1250 1800 
L 5050 1800 
z
M 3375 4800 
Q 4100 3925 4550 3600 
Q 5000 3275 5375 3100 
Q 5750 2925 6100 2825 
Q 5850 2550 5775 2300 
Q 5275 2525 4875 2775 
Q 4475 3025 4062 3412 
Q 3650 3800 3125 4475 
Q 2650 3800 2187 3362 
Q 1725 2925 1400 2675 
Q 1075 2425 675 2175 
Q 625 2275 275 2575 
Q 800 2825 1275 3175 
Q 1750 3525 2225 4062 
Q 2700 4600 3000 5225 
Q 3275 5050 3500 4950 
L 3375 4800 
z
M 4525 350 
L 4525 1400 
L 1750 1400 
L 1750 350 
L 4525 350 
z
M 3925 2825 
Q 4325 2825 4625 2850 
L 4625 2375 
Q 4300 2400 3950 2400 
L 2550 2400 
Q 2025 2400 1700 2375 
L 1700 2850 
Q 2175 2825 2550 2825 
L 3925 2825 
z
" transform="scale(0.015625)"/>
      <path id="SimHei-60c5" d="M 2775 1475 
Q 2775 2050 2750 2525 
L 5600 2525 
Q 5575 2100 5575 1725 
L 5575 -150 
Q 5575 -425 5375 -500 
Q 5175 -575 4875 -625 
Q 4850 -400 4700 -150 
Q 5050 -150 5100 -75 
Q 5150 0 5150 475 
L 3225 475 
L 3225 -625 
L 2750 -625 
Q 2775 -50 2775 375 
L 2775 1475 
z
M 2375 3250 
Q 2975 3225 3475 3225 
L 3975 3225 
L 3975 3625 
L 3500 3625 
Q 3075 3625 2625 3600 
L 2625 4025 
Q 3075 4000 3500 4000 
L 3975 4000 
L 3975 4350 
L 3450 4350 
Q 3050 4350 2475 4325 
L 2475 4750 
Q 3075 4725 3450 4725 
L 3975 4725 
Q 3975 4975 3950 5225 
L 4475 5225 
Q 4450 4975 4450 4725 
L 5125 4725 
Q 5550 4725 5925 4750 
L 5925 4325 
Q 5550 4350 5125 4350 
L 4450 4350 
L 4450 4000 
L 4925 4000 
Q 5325 4000 5750 4025 
L 5750 3600 
Q 5300 3625 4925 3625 
L 4450 3625 
L 4450 3225 
L 5175 3225 
Q 5775 3225 6150 3250 
L 6150 2825 
Q 5775 2850 5150 2850 
L 3500 2850 
Q 2850 2850 2375 2825 
L 2375 3250 
z
M 1675 5225 
Q 1650 4800 1650 4400 
L 1650 425 
Q 1650 -100 1675 -600 
L 1150 -600 
Q 1200 -100 1200 425 
L 1200 4325 
Q 1200 4825 1150 5225 
L 1675 5225 
z
M 5125 850 
L 5125 1325 
L 3225 1325 
L 3225 850 
L 5125 850 
z
M 5125 1700 
L 5125 2150 
L 3225 2150 
L 3225 1700 
L 5125 1700 
z
M 1050 3900 
Q 1000 3675 725 2275 
Q 500 2350 250 2375 
Q 425 2750 575 3975 
Q 800 3925 1050 3900 
z
M 1975 3125 
Q 1925 3425 1775 3975 
Q 1950 4000 2200 4075 
Q 2350 3550 2450 3275 
Q 2175 3200 1975 3125 
z
" transform="scale(0.015625)"/>
      <path id="SimHei-51b5" d="M 5450 4875 
Q 5425 4500 5425 3675 
Q 5425 2850 5450 2375 
L 4575 2375 
L 4575 400 
Q 4575 50 4762 25 
Q 4950 0 5200 12 
Q 5450 25 5500 187 
Q 5550 350 5575 825 
Q 5850 675 6150 600 
Q 5975 -175 5775 -287 
Q 5575 -400 5175 -412 
Q 4775 -425 4437 -362 
Q 4100 -300 4100 200 
L 4100 2375 
L 3475 2375 
Q 3500 150 1600 -625 
Q 1525 -375 1275 -150 
Q 3000 375 3000 2375 
L 2325 2375 
Q 2350 2850 2350 3675 
Q 2350 4525 2325 4875 
L 5450 4875 
z
M 4900 2775 
L 4900 4475 
L 2850 4475 
L 2850 2775 
L 4900 2775 
z
M 2025 2200 
Q 1750 1725 1350 1000 
Q 950 275 775 0 
Q 525 175 300 300 
Q 800 975 1600 2500 
Q 1850 2300 2025 2200 
z
M 950 4950 
Q 1100 4775 1350 4462 
Q 1600 4150 1850 3800 
Q 1575 3625 1375 3450 
Q 1075 4025 525 4600 
Q 775 4825 950 4950 
z
" transform="scale(0.015625)"/>
     </defs>
     <use xlink:href="#SimHei-5168"/>
     <use xlink:href="#SimHei-90e8" x="100"/>
     <use xlink:href="#SimHei-65f6" x="200"/>
     <use xlink:href="#SimHei-95f4" x="300"/>
     <use xlink:href="#SimHei-4e0a" x="400"/>
     <use xlink:href="#SimHei-7684" x="500"/>
     <use xlink:href="#SimHei-62df" x="600"/>
     <use xlink:href="#SimHei-5408" x="700"/>
     <use xlink:href="#SimHei-60c5" x="800"/>
     <use xlink:href="#SimHei-51b5" x="900"/>
    </g>
   </g>
   <g id="legend_1">
    <g id="patch_7">
     <path d="M 608.34375 71.693492 
L 700.34375 71.693492 
Q 702.34375 71.693492 702.34375 69.693492 
L 702.34375 44.115367 
Q 702.34375 42.115367 700.34375 42.115367 
L 608.34375 42.115367 
Q 606.34375 42.115367 606.34375 44.115367 
L 606.34375 69.693492 
Q 606.34375 71.693492 608.34375 71.693492 
z
" style="fill: #ffffff; opacity: 0.8; stroke: #cccccc; stroke-linejoin: miter"/>
    </g>
    <g id="line2d_13">
     <path d="M 610.34375 49.615367 
L 620.34375 49.615367 
L 630.34375 49.615367 
" style="fill: none; stroke: #ff0000; stroke-width: 1.5; stroke-linecap: square"/>
    </g>
    <g id="text_14">
     <!-- real -->
     <g transform="translate(638.34375 53.115367) scale(0.1 -0.1)">
      <defs>
       <path id="SimHei-61" d="M 2875 125 
L 2275 125 
Q 2225 175 2200 262 
Q 2175 350 2175 475 
Q 2000 275 1750 175 
Q 1500 75 1225 75 
Q 825 75 550 275 
Q 275 475 275 850 
Q 275 1225 525 1450 
Q 775 1675 1300 1750 
Q 1650 1800 1912 1875 
Q 2175 1950 2175 2075 
Q 2175 2225 2062 2375 
Q 1950 2525 1575 2525 
Q 1275 2525 1137 2412 
Q 1000 2300 950 2100 
L 400 2100 
Q 450 2500 762 2737 
Q 1075 2975 1575 2975 
Q 2125 2975 2400 2725 
Q 2675 2475 2675 2025 
L 2675 650 
Q 2675 500 2725 375 
Q 2775 250 2875 125 
z
M 2175 1050 
L 2175 1550 
Q 2025 1500 1887 1462 
Q 1750 1425 1425 1375 
Q 1050 1325 937 1200 
Q 825 1075 825 900 
Q 825 750 937 637 
Q 1050 525 1275 525 
Q 1500 525 1762 650 
Q 2025 775 2175 1050 
z
" transform="scale(0.015625)"/>
       <path id="SimHei-6c" d="M 1825 125 
L 1325 125 
L 1325 4400 
L 1825 4400 
L 1825 125 
z
" transform="scale(0.015625)"/>
      </defs>
      <use xlink:href="#SimHei-72"/>
      <use xlink:href="#SimHei-65" x="50"/>
      <use xlink:href="#SimHei-61" x="100"/>
      <use xlink:href="#SimHei-6c" x="150"/>
     </g>
    </g>
    <g id="line2d_14">
     <path d="M 610.34375 62.865367 
L 620.34375 62.865367 
L 630.34375 62.865367 
" style="fill: none; stroke-dasharray: 5.55,2.4; stroke-dashoffset: 0; stroke: #008000; stroke-width: 1.5"/>
    </g>
    <g id="text_15">
     <!-- SVR_simulate -->
     <g transform="translate(638.34375 66.365367) scale(0.1 -0.1)">
      <defs>
       <path id="SimHei-53" d="M 2900 1325 
Q 2900 750 2537 412 
Q 2175 75 1550 75 
Q 925 75 575 425 
Q 225 775 225 1300 
L 225 1475 
L 800 1475 
L 800 1325 
Q 800 950 1025 750 
Q 1250 550 1550 550 
Q 1950 550 2137 762 
Q 2325 975 2325 1275 
Q 2325 1525 2100 1737 
Q 1875 1950 1450 2125 
Q 850 2350 587 2625 
Q 325 2900 325 3275 
Q 325 3800 687 4125 
Q 1050 4450 1550 4450 
Q 2200 4450 2487 4062 
Q 2775 3675 2775 3225 
L 2200 3225 
Q 2225 3500 2050 3725 
Q 1875 3950 1550 3950 
Q 1250 3950 1075 3787 
Q 900 3625 900 3350 
Q 900 3125 1037 2962 
Q 1175 2800 1750 2575 
Q 2300 2350 2600 2037 
Q 2900 1725 2900 1325 
z
" transform="scale(0.015625)"/>
       <path id="SimHei-56" d="M 3050 4400 
L 1800 75 
L 1300 75 
L 50 4400 
L 650 4400 
L 1525 1125 
L 1575 1125 
L 2450 4400 
L 3050 4400 
z
" transform="scale(0.015625)"/>
       <path id="SimHei-52" d="M 3000 125 
L 2400 125 
L 1500 1975 
L 850 1975 
L 850 125 
L 275 125 
L 275 4400 
L 1525 4400 
Q 2125 4400 2500 4112 
Q 2875 3825 2875 3175 
Q 2875 2675 2625 2400 
Q 2375 2125 2050 2050 
L 3000 125 
z
M 2300 3175 
Q 2300 3525 2087 3725 
Q 1875 3925 1400 3925 
L 850 3925 
L 850 2450 
L 1550 2450 
Q 1850 2450 2075 2612 
Q 2300 2775 2300 3175 
z
" transform="scale(0.015625)"/>
       <path id="SimHei-5f" d="M 3150 -850 
L 0 -850 
L 0 -550 
L 3150 -550 
L 3150 -850 
z
" transform="scale(0.015625)"/>
       <path id="SimHei-73" d="M 2750 900 
Q 2750 500 2437 287 
Q 2125 75 1650 75 
Q 1050 75 725 312 
Q 400 550 400 1000 
L 900 1000 
Q 900 700 1112 600 
Q 1325 500 1625 500 
Q 1925 500 2075 612 
Q 2225 725 2225 900 
Q 2225 1025 2100 1150 
Q 1975 1275 1475 1350 
Q 900 1425 687 1637 
Q 475 1850 475 2200 
Q 475 2500 762 2737 
Q 1050 2975 1600 2975 
Q 2100 2975 2387 2750 
Q 2675 2525 2675 2150 
L 2175 2150 
Q 2175 2375 2012 2462 
Q 1850 2550 1600 2550 
Q 1275 2550 1137 2437 
Q 1000 2325 1000 2175 
Q 1000 2000 1125 1900 
Q 1250 1800 1650 1750 
Q 2300 1650 2525 1437 
Q 2750 1225 2750 900 
z
" transform="scale(0.015625)"/>
       <path id="SimHei-69" d="M 1800 3725 
L 1300 3725 
L 1300 4375 
L 1800 4375 
L 1800 3725 
z
M 1800 125 
L 1300 125 
L 1300 2925 
L 1800 2925 
L 1800 125 
z
" transform="scale(0.015625)"/>
       <path id="SimHei-6d" d="M 3050 125 
L 2550 125 
L 2550 2150 
Q 2550 2300 2500 2400 
Q 2450 2500 2300 2500 
Q 2125 2500 1975 2312 
Q 1825 2125 1825 1825 
L 1825 125 
L 1325 125 
L 1325 2150 
Q 1325 2300 1275 2400 
Q 1225 2500 1075 2500 
Q 900 2500 750 2312 
Q 600 2125 600 1825 
L 600 125 
L 100 125 
L 100 2925 
L 600 2925 
L 600 2550 
Q 725 2750 900 2862 
Q 1075 2975 1275 2975 
Q 1475 2975 1612 2862 
Q 1750 2750 1800 2550 
Q 1925 2750 2087 2862 
Q 2250 2975 2450 2975 
Q 2750 2975 2900 2812 
Q 3050 2650 3050 2350 
L 3050 125 
z
" transform="scale(0.015625)"/>
       <path id="SimHei-74" d="M 2750 200 
Q 2625 150 2462 112 
Q 2300 75 2025 75 
Q 1575 75 1300 325 
Q 1025 575 1025 1025 
L 1025 2525 
L 175 2525 
L 175 2925 
L 1025 2925 
L 1025 3900 
L 1525 3900 
L 1525 2925 
L 2550 2925 
L 2550 2525 
L 1525 2525 
L 1525 1000 
Q 1525 800 1625 662 
Q 1725 525 2000 525 
Q 2275 525 2450 575 
Q 2625 625 2750 700 
L 2750 200 
z
" transform="scale(0.015625)"/>
      </defs>
      <use xlink:href="#SimHei-53"/>
      <use xlink:href="#SimHei-56" x="50"/>
      <use xlink:href="#SimHei-52" x="100"/>
      <use xlink:href="#SimHei-5f" x="150"/>
      <use xlink:href="#SimHei-73" x="200"/>
      <use xlink:href="#SimHei-69" x="250"/>
      <use xlink:href="#SimHei-6d" x="300"/>
      <use xlink:href="#SimHei-75" x="350"/>
      <use xlink:href="#SimHei-6c" x="400"/>
      <use xlink:href="#SimHei-61" x="450"/>
      <use xlink:href="#SimHei-74" x="500"/>
      <use xlink:href="#SimHei-65" x="550"/>
     </g>
    </g>
   </g>
  </g>
  <g id="axes_2">
   <g id="patch_8">
    <path d="M 63.692375 418.36357 
L 707.34375 418.36357 
L 707.34375 265.851457 
L 63.692375 265.851457 
z
" style="fill: #ffffff"/>
   </g>
   <g id="matplotlib.axis_3">
    <g id="xtick_6">
     <g id="line2d_15">
      <g>
       <use xlink:href="#m65308d070a" x="92.949256" y="418.36357" style="stroke: #000000; stroke-width: 0.8"/>
      </g>
     </g>
     <g id="text_16">
      <!-- 0 -->
      <g transform="translate(90.449256 432.23857) scale(0.1 -0.1)">
       <use xlink:href="#SimHei-30"/>
      </g>
     </g>
    </g>
    <g id="xtick_7">
     <g id="line2d_16">
      <g>
       <use xlink:href="#m65308d070a" x="166.091457" y="418.36357" style="stroke: #000000; stroke-width: 0.8"/>
      </g>
     </g>
     <g id="text_17">
      <!-- 1 -->
      <g transform="translate(163.591457 432.23857) scale(0.1 -0.1)">
       <use xlink:href="#SimHei-31"/>
      </g>
     </g>
    </g>
    <g id="xtick_8">
     <g id="line2d_17">
      <g>
       <use xlink:href="#m65308d070a" x="239.233659" y="418.36357" style="stroke: #000000; stroke-width: 0.8"/>
      </g>
     </g>
     <g id="text_18">
      <!-- 2 -->
      <g transform="translate(236.733659 432.23857) scale(0.1 -0.1)">
       <use xlink:href="#SimHei-32"/>
      </g>
     </g>
    </g>
    <g id="xtick_9">
     <g id="line2d_18">
      <g>
       <use xlink:href="#m65308d070a" x="312.375861" y="418.36357" style="stroke: #000000; stroke-width: 0.8"/>
      </g>
     </g>
     <g id="text_19">
      <!-- 3 -->
      <g transform="translate(309.875861 432.23857) scale(0.1 -0.1)">
       <use xlink:href="#SimHei-33"/>
      </g>
     </g>
    </g>
    <g id="xtick_10">
     <g id="line2d_19">
      <g>
       <use xlink:href="#m65308d070a" x="385.518063" y="418.36357" style="stroke: #000000; stroke-width: 0.8"/>
      </g>
     </g>
     <g id="text_20">
      <!-- 4 -->
      <g transform="translate(383.018063 432.23857) scale(0.1 -0.1)">
       <defs>
        <path id="SimHei-34" d="M 2000 1100 
L 75 1100 
L 75 1525 
L 2100 4450 
L 2475 4450 
L 2475 1525 
L 3075 1525 
L 3075 1100 
L 2475 1100 
L 2475 150 
L 2000 150 
L 2000 1100 
z
M 2000 1525 
L 2000 3500 
L 600 1525 
L 2000 1525 
z
" transform="scale(0.015625)"/>
       </defs>
       <use xlink:href="#SimHei-34"/>
      </g>
     </g>
    </g>
    <g id="xtick_11">
     <g id="line2d_20">
      <g>
       <use xlink:href="#m65308d070a" x="458.660264" y="418.36357" style="stroke: #000000; stroke-width: 0.8"/>
      </g>
     </g>
     <g id="text_21">
      <!-- 5 -->
      <g transform="translate(456.160264 432.23857) scale(0.1 -0.1)">
       <use xlink:href="#SimHei-35"/>
      </g>
     </g>
    </g>
    <g id="xtick_12">
     <g id="line2d_21">
      <g>
       <use xlink:href="#m65308d070a" x="531.802466" y="418.36357" style="stroke: #000000; stroke-width: 0.8"/>
      </g>
     </g>
     <g id="text_22">
      <!-- 6 -->
      <g transform="translate(529.302466 432.23857) scale(0.1 -0.1)">
       <defs>
        <path id="SimHei-36" d="M 250 1612 
Q 275 1975 387 2225 
Q 500 2475 725 2850 
L 1750 4450 
L 2325 4450 
L 1275 2800 
Q 1950 2975 2350 2750 
Q 2750 2525 2887 2237 
Q 3025 1950 3037 1612 
Q 3050 1275 2937 950 
Q 2825 625 2537 362 
Q 2250 100 1737 75 
Q 1225 50 862 262 
Q 500 475 362 862 
Q 225 1250 250 1612 
z
M 1025 787 
Q 1250 550 1625 525 
Q 2000 500 2250 775 
Q 2500 1050 2500 1575 
Q 2500 2100 2187 2300 
Q 1875 2500 1487 2450 
Q 1100 2400 925 2075 
Q 750 1750 775 1387 
Q 800 1025 1025 787 
z
" transform="scale(0.015625)"/>
       </defs>
       <use xlink:href="#SimHei-36"/>
      </g>
     </g>
    </g>
    <g id="xtick_13">
     <g id="line2d_22">
      <g>
       <use xlink:href="#m65308d070a" x="604.944668" y="418.36357" style="stroke: #000000; stroke-width: 0.8"/>
      </g>
     </g>
     <g id="text_23">
      <!-- 7 -->
      <g transform="translate(602.444668 432.23857) scale(0.1 -0.1)">
       <defs>
        <path id="SimHei-37" d="M 850 150 
Q 1300 2050 2425 3925 
L 275 3925 
L 275 4375 
L 2950 4375 
L 2950 3950 
Q 1775 2050 1400 150 
L 850 150 
z
" transform="scale(0.015625)"/>
       </defs>
       <use xlink:href="#SimHei-37"/>
      </g>
     </g>
    </g>
    <g id="xtick_14">
     <g id="line2d_23">
      <g>
       <use xlink:href="#m65308d070a" x="678.086869" y="418.36357" style="stroke: #000000; stroke-width: 0.8"/>
      </g>
     </g>
     <g id="text_24">
      <!-- 8 -->
      <g transform="translate(675.586869 432.23857) scale(0.1 -0.1)">
       <defs>
        <path id="SimHei-38" d="M 175 1375 
Q 175 1675 325 1962 
Q 475 2250 825 2425 
Q 525 2600 425 2812 
Q 325 3025 312 3300 
Q 300 3575 387 3775 
Q 475 3975 650 4150 
Q 825 4325 1037 4387 
Q 1250 4450 1500 4450 
Q 1750 4450 1950 4400 
Q 2150 4350 2375 4187 
Q 2600 4025 2700 3725 
Q 2800 3425 2687 3025 
Q 2575 2625 2100 2400 
Q 2525 2275 2700 2012 
Q 2875 1750 2875 1375 
Q 2875 1000 2762 775 
Q 2650 550 2512 400 
Q 2375 250 2137 162 
Q 1900 75 1537 75 
Q 1175 75 912 162 
Q 650 250 475 425 
Q 300 600 237 837 
Q 175 1075 175 1375 
z
M 687 1400 
Q 675 1100 787 875 
Q 900 650 1200 587 
Q 1500 525 1825 600 
Q 2150 675 2275 950 
Q 2400 1225 2362 1500 
Q 2325 1775 2050 1962 
Q 1775 2150 1450 2125 
Q 1125 2100 912 1900 
Q 700 1700 687 1400 
z
M 775 3350 
Q 775 3100 950 2875 
Q 1125 2650 1500 2650 
Q 1875 2650 2062 2875 
Q 2250 3100 2237 3412 
Q 2225 3725 2012 3875 
Q 1800 4025 1437 4000 
Q 1075 3975 925 3787 
Q 775 3600 775 3350 
z
" transform="scale(0.015625)"/>
       </defs>
       <use xlink:href="#SimHei-38"/>
      </g>
     </g>
    </g>
    <g id="text_25">
     <!-- 时间 -->
     <g transform="translate(375.518063 445.496383) scale(0.1 -0.1)">
      <use xlink:href="#SimHei-65f6"/>
      <use xlink:href="#SimHei-95f4" x="100"/>
     </g>
    </g>
   </g>
   <g id="matplotlib.axis_4">
    <g id="ytick_6">
     <g id="line2d_24">
      <g>
       <use xlink:href="#mcf7448cb13" x="63.692375" y="382.434605" style="stroke: #000000; stroke-width: 0.8"/>
      </g>
     </g>
     <g id="text_26">
      <!-- -1 -->
      <g transform="translate(46.692375 385.872105) scale(0.1 -0.1)">
       <use xlink:href="#SimHei-2d"/>
       <use xlink:href="#SimHei-31" x="50"/>
      </g>
     </g>
    </g>
    <g id="ytick_7">
     <g id="line2d_25">
      <g>
       <use xlink:href="#mcf7448cb13" x="63.692375" y="339.302614" style="stroke: #000000; stroke-width: 0.8"/>
      </g>
     </g>
     <g id="text_27">
      <!-- 0 -->
      <g transform="translate(51.692375 342.740114) scale(0.1 -0.1)">
       <use xlink:href="#SimHei-30"/>
      </g>
     </g>
    </g>
    <g id="ytick_8">
     <g id="line2d_26">
      <g>
       <use xlink:href="#mcf7448cb13" x="63.692375" y="296.170624" style="stroke: #000000; stroke-width: 0.8"/>
      </g>
     </g>
     <g id="text_28">
      <!-- 1 -->
      <g transform="translate(51.692375 299.608124) scale(0.1 -0.1)">
       <use xlink:href="#SimHei-31"/>
      </g>
     </g>
    </g>
    <g id="text_29">
     <!-- revenue -->
     <g transform="translate(41.442375 359.607514) rotate(-90) scale(0.1 -0.1)">
      <use xlink:href="#SimHei-72"/>
      <use xlink:href="#SimHei-65" x="50"/>
      <use xlink:href="#SimHei-76" x="100"/>
      <use xlink:href="#SimHei-65" x="150"/>
      <use xlink:href="#SimHei-6e" x="200"/>
      <use xlink:href="#SimHei-75" x="250"/>
      <use xlink:href="#SimHei-65" x="300"/>
     </g>
    </g>
   </g>
   <g id="line2d_27">
    <path d="M 92.949256 318.44315 
L 166.091457 333.658974 
L 239.233659 389.437031 
L 312.375861 335.031314 
L 385.518063 346.626674 
L 458.660264 411.431202 
L 531.802466 365.24056 
L 604.944668 281.070797 
L 678.086869 272.783826 
" clip-path="url(#p49dbc84e66)" style="fill: none; stroke: #ff0000; stroke-width: 1.5; stroke-linecap: square"/>
   </g>
   <g id="line2d_28">
    <path d="M 92.949256 328.634326 
L 166.091457 343.051292 
L 239.233659 381.666152 
L 312.375861 339.494594 
L 385.518063 351.080149 
L 458.660264 392.286964 
L 531.802466 352.699195 
L 604.944668 294.355696 
L 678.086869 286.580071 
" clip-path="url(#p49dbc84e66)" style="fill: none; stroke-dasharray: 5.55,2.4; stroke-dashoffset: 0; stroke: #008000; stroke-width: 1.5"/>
   </g>
   <g id="patch_9">
    <path d="M 63.692375 418.36357 
L 63.692375 265.851457 
" style="fill: none; stroke: #000000; stroke-width: 0.8; stroke-linejoin: miter; stroke-linecap: square"/>
   </g>
   <g id="patch_10">
    <path d="M 707.34375 418.36357 
L 707.34375 265.851457 
" style="fill: none; stroke: #000000; stroke-width: 0.8; stroke-linejoin: miter; stroke-linecap: square"/>
   </g>
   <g id="patch_11">
    <path d="M 63.692375 418.36357 
L 707.34375 418.36357 
" style="fill: none; stroke: #000000; stroke-width: 0.8; stroke-linejoin: miter; stroke-linecap: square"/>
   </g>
   <g id="patch_12">
    <path d="M 63.692375 265.851457 
L 707.34375 265.851457 
" style="fill: none; stroke: #000000; stroke-width: 0.8; stroke-linejoin: miter; stroke-linecap: square"/>
   </g>
   <g id="text_30">
    <!-- '2019-10-14'至'2019-11-11'的预测情况 -->
    <g transform="translate(277.518063 259.851457) scale(0.12 -0.12)">
     <defs>
      <path id="SimHei-27" d="M 1700 4450 
Q 1625 4125 1600 3800 
L 1550 3150 
L 1175 3150 
L 1150 3950 
Q 1125 4200 1100 4450 
L 1700 4450 
z
" transform="scale(0.015625)"/>
      <path id="SimHei-39" d="M 800 75 
Q 1350 1000 1700 1750 
Q 1075 1650 662 1912 
Q 250 2175 162 2625 
Q 75 3075 175 3437 
Q 275 3800 487 4037 
Q 700 4275 1000 4375 
Q 1300 4475 1537 4475 
Q 1775 4475 2025 4375 
Q 2275 4275 2475 4075 
Q 2675 3875 2750 3662 
Q 2825 3450 2825 3112 
Q 2825 2775 2575 2250 
Q 2325 1725 1350 75 
L 800 75 
z
M 662 2875 
Q 700 2550 937 2337 
Q 1175 2125 1450 2150 
Q 1725 2175 1887 2300 
Q 2050 2425 2200 2725 
Q 2300 3100 2250 3362 
Q 2200 3625 1987 3800 
Q 1775 3975 1525 3975 
Q 1375 4000 1137 3900 
Q 900 3800 762 3500 
Q 625 3200 662 2875 
z
" transform="scale(0.015625)"/>
      <path id="SimHei-81f3" d="M 4250 3725 
Q 5275 2700 5575 2350 
Q 5350 2225 5175 2025 
Q 4950 2275 4750 2475 
Q 3925 2425 3475 2400 
L 3475 1450 
L 4275 1450 
Q 4800 1450 5250 1475 
L 5250 1000 
Q 4775 1025 4300 1025 
L 3475 1025 
L 3475 100 
L 4975 100 
Q 5550 100 5975 125 
L 5975 -350 
Q 5575 -325 4975 -325 
L 1325 -325 
Q 825 -325 450 -350 
L 450 125 
Q 850 100 1350 100 
L 2975 100 
L 2975 1025 
L 2025 1025 
Q 1550 1025 1150 1000 
L 1150 1475 
Q 1575 1450 2050 1450 
L 2975 1450 
L 2975 2375 
Q 2500 2350 1975 2300 
Q 1450 2250 1250 2175 
Q 1150 2425 1050 2650 
Q 1575 2800 2050 3350 
Q 2525 3900 2600 4275 
L 1700 4275 
Q 1150 4275 775 4250 
L 775 4725 
Q 1150 4700 1700 4700 
L 4700 4700 
Q 5225 4700 5650 4725 
L 5650 4250 
Q 5250 4275 4675 4275 
L 2800 4275 
Q 3000 4125 3225 3950 
Q 2900 3675 2537 3287 
Q 2175 2900 1950 2725 
Q 2700 2725 3300 2750 
Q 3900 2775 4475 2800 
Q 4250 3050 3900 3400 
Q 4075 3550 4250 3725 
z
" transform="scale(0.015625)"/>
      <path id="SimHei-9884" d="M 5200 4800 
Q 5575 4800 5950 4825 
L 5950 4400 
Q 5575 4425 5200 4425 
L 4500 4425 
Q 4425 4050 4350 3600 
L 5725 3600 
Q 5700 3225 5700 2800 
L 5700 1725 
Q 5700 1300 5725 850 
L 5250 850 
L 5250 3225 
L 3550 3225 
L 3550 800 
L 3075 800 
Q 3100 1375 3100 1725 
L 3100 2775 
Q 3100 3175 3075 3600 
L 3900 3600 
Q 4000 4150 4000 4425 
L 3725 4425 
Q 3300 4425 2850 4400 
L 2850 4825 
Q 3325 4800 3725 4800 
L 5200 4800 
z
M 2600 1775 
Q 2350 1825 2150 1825 
Q 2250 2250 2300 2450 
L 1750 2450 
L 1750 125 
Q 1725 -300 1425 -400 
Q 1125 -500 750 -500 
Q 700 -225 575 25 
Q 1125 -25 1212 37 
Q 1300 100 1300 350 
L 1300 2450 
L 1025 2450 
Q 700 2450 350 2425 
L 350 2850 
Q 700 2825 1000 2825 
L 2850 2825 
Q 2725 2325 2600 1775 
z
M 4725 2875 
Q 4625 2575 4600 2100 
Q 4575 1625 4462 1037 
Q 4350 450 3962 62 
Q 3575 -325 2925 -675 
Q 2700 -500 2475 -350 
Q 3075 -125 3437 200 
Q 3800 525 3950 937 
Q 4100 1350 4137 1850 
Q 4175 2350 4175 2925 
L 4725 2875 
z
M 1625 2900 
Q 1275 3275 800 3650 
Q 925 3775 1075 3950 
Q 1250 3825 1425 3675 
Q 1750 4150 1950 4375 
L 1400 4375 
Q 900 4375 450 4350 
L 450 4775 
Q 900 4750 1375 4750 
L 2575 4750 
L 2575 4375 
Q 2200 4100 1725 3400 
L 1950 3200 
Q 1750 3025 1625 2900 
z
M 4775 725 
Q 5725 0 6075 -325 
Q 5850 -500 5725 -650 
Q 5400 -325 5137 -87 
Q 4875 150 4525 350 
Q 4650 525 4775 725 
z
" transform="scale(0.015625)"/>
      <path id="SimHei-6d4b" d="M 4025 4725 
Q 4000 4475 4000 4000 
L 4000 2225 
Q 4000 1775 4025 1350 
L 3550 1350 
L 3550 4325 
L 2350 4325 
L 2350 1325 
L 1900 1325 
Q 1925 1775 1925 2225 
L 1925 4000 
Q 1925 4200 1900 4725 
L 4025 4725 
z
M 5900 5075 
Q 5875 4800 5875 4375 
L 5875 0 
Q 5875 -325 5650 -425 
Q 5425 -525 4975 -600 
Q 4925 -325 4775 -50 
Q 5125 -50 5262 -25 
Q 5400 0 5400 250 
L 5400 4375 
Q 5400 4775 5375 5075 
L 5900 5075 
z
M 3275 3725 
Q 3225 3400 3200 2325 
Q 3175 1250 2837 550 
Q 2500 -150 2075 -600 
Q 1850 -400 1600 -325 
Q 2200 250 2475 962 
Q 2750 1675 2762 2475 
Q 2775 3275 2725 3800 
Q 3000 3750 3275 3725 
z
M 4950 4275 
Q 4925 4000 4925 3575 
L 4925 1825 
Q 4925 1300 4950 850 
L 4450 850 
Q 4475 1150 4475 1825 
L 4475 3575 
Q 4475 4000 4450 4275 
L 4950 4275 
z
M 1700 1675 
Q 1375 1075 1112 487 
Q 850 -100 725 -400 
Q 500 -200 200 -25 
Q 475 300 762 850 
Q 1050 1400 1250 2000 
Q 1475 1825 1700 1675 
z
M 3400 1050 
Q 3800 650 4300 -125 
Q 4100 -225 3875 -450 
Q 3475 275 3025 750 
Q 3225 875 3400 1050 
z
M 600 3525 
Q 1125 3125 1500 2775 
Q 1300 2575 1150 2375 
Q 825 2775 300 3150 
Q 450 3300 600 3525 
z
M 1350 4000 
Q 950 4375 475 4675 
Q 625 4850 775 5050 
Q 1300 4700 1675 4375 
Q 1500 4250 1350 4000 
z
" transform="scale(0.015625)"/>
     </defs>
     <use xlink:href="#SimHei-27"/>
     <use xlink:href="#SimHei-32" x="50"/>
     <use xlink:href="#SimHei-30" x="100"/>
     <use xlink:href="#SimHei-31" x="150"/>
     <use xlink:href="#SimHei-39" x="200"/>
     <use xlink:href="#SimHei-2d" x="250"/>
     <use xlink:href="#SimHei-31" x="300"/>
     <use xlink:href="#SimHei-30" x="350"/>
     <use xlink:href="#SimHei-2d" x="400"/>
     <use xlink:href="#SimHei-31" x="450"/>
     <use xlink:href="#SimHei-34" x="500"/>
     <use xlink:href="#SimHei-27" x="550"/>
     <use xlink:href="#SimHei-81f3" x="600"/>
     <use xlink:href="#SimHei-27" x="700"/>
     <use xlink:href="#SimHei-32" x="750"/>
     <use xlink:href="#SimHei-30" x="800"/>
     <use xlink:href="#SimHei-31" x="850"/>
     <use xlink:href="#SimHei-39" x="900"/>
     <use xlink:href="#SimHei-2d" x="950"/>
     <use xlink:href="#SimHei-31" x="1000"/>
     <use xlink:href="#SimHei-31" x="1050"/>
     <use xlink:href="#SimHei-2d" x="1100"/>
     <use xlink:href="#SimHei-31" x="1150"/>
     <use xlink:href="#SimHei-31" x="1200"/>
     <use xlink:href="#SimHei-27" x="1250"/>
     <use xlink:href="#SimHei-7684" x="1300"/>
     <use xlink:href="#SimHei-9884" x="1400"/>
     <use xlink:href="#SimHei-6d4b" x="1500"/>
     <use xlink:href="#SimHei-60c5" x="1600"/>
     <use xlink:href="#SimHei-51b5" x="1700"/>
    </g>
   </g>
   <g id="legend_2">
    <g id="patch_13">
     <path d="M 70.692375 300.429582 
L 162.692375 300.429582 
Q 164.692375 300.429582 164.692375 298.429582 
L 164.692375 272.851457 
Q 164.692375 270.851457 162.692375 270.851457 
L 70.692375 270.851457 
Q 68.692375 270.851457 68.692375 272.851457 
L 68.692375 298.429582 
Q 68.692375 300.429582 70.692375 300.429582 
z
" style="fill: #ffffff; opacity: 0.8; stroke: #cccccc; stroke-linejoin: miter"/>
    </g>
    <g id="line2d_29">
     <path d="M 72.692375 278.351457 
L 82.692375 278.351457 
L 92.692375 278.351457 
" style="fill: none; stroke: #ff0000; stroke-width: 1.5; stroke-linecap: square"/>
    </g>
    <g id="text_31">
     <!-- real -->
     <g transform="translate(100.692375 281.851457) scale(0.1 -0.1)">
      <use xlink:href="#SimHei-72"/>
      <use xlink:href="#SimHei-65" x="50"/>
      <use xlink:href="#SimHei-61" x="100"/>
      <use xlink:href="#SimHei-6c" x="150"/>
     </g>
    </g>
    <g id="line2d_30">
     <path d="M 72.692375 291.601457 
L 82.692375 291.601457 
L 92.692375 291.601457 
" style="fill: none; stroke-dasharray: 5.55,2.4; stroke-dashoffset: 0; stroke: #008000; stroke-width: 1.5"/>
    </g>
    <g id="text_32">
     <!-- SVR_simulate -->
     <g transform="translate(100.692375 295.101457) scale(0.1 -0.1)">
      <use xlink:href="#SimHei-53"/>
      <use xlink:href="#SimHei-56" x="50"/>
      <use xlink:href="#SimHei-52" x="100"/>
      <use xlink:href="#SimHei-5f" x="150"/>
      <use xlink:href="#SimHei-73" x="200"/>
      <use xlink:href="#SimHei-69" x="250"/>
      <use xlink:href="#SimHei-6d" x="300"/>
      <use xlink:href="#SimHei-75" x="350"/>
      <use xlink:href="#SimHei-6c" x="400"/>
      <use xlink:href="#SimHei-61" x="450"/>
      <use xlink:href="#SimHei-74" x="500"/>
      <use xlink:href="#SimHei-65" x="550"/>
     </g>
    </g>
   </g>
  </g>
 </g>
 <defs>
  <clipPath id="pefbb32b456">
   <rect x="63.692375" y="37.115367" width="643.651375" height="152.512113"/>
  </clipPath>
  <clipPath id="p49dbc84e66">
   <rect x="63.692375" y="265.851457" width="643.651375" height="152.512113"/>
  </clipPath>
 </defs>
</svg>
